<svg width="101" height="100" viewBox="0 0 101 100" fill="none" xmlns="http://www.w3.org/2000/svg">
<path d="M0.365234 30C0.365234 13.4315 13.7967 0 30.3652 0H100.365V70C100.365 86.5685 86.9338 100 70.3652 100H0.365234V30Z" fill="black"/>
<path d="M51.8209 16.783C55.453 16.7275 59.0585 16.7564 62.6617 16.7275C62.7815 21.2338 64.6098 25.2897 67.5186 28.2939L67.5141 28.2894C70.6448 31.1095 74.7184 32.9377 79.2092 33.2484L79.2713 33.2528V44.4264C75.029 44.3199 71.0397 43.3414 67.4431 41.6596L67.6251 41.7351C65.8856 40.8986 64.4145 40.0399 63.0167 39.0814L63.1321 39.1569C63.1055 47.2531 63.1587 55.3493 63.0766 63.4167C62.8481 67.528 61.4814 71.2777 59.2892 74.4084L59.3336 74.3396C55.6682 79.5892 49.7309 83.0349 42.9792 83.239H42.9481C42.6752 83.2523 42.3535 83.259 42.0296 83.259C38.1911 83.259 34.6034 82.1895 31.546 80.3324L31.6347 80.3835C26.0701 77.0354 22.2317 71.3066 21.5217 64.6437L21.5128 64.5527C21.4573 63.166 21.4307 61.7793 21.4862 60.4214C22.5734 49.818 31.4572 41.6153 42.2559 41.6153C43.4695 41.6153 44.6588 41.7195 45.8148 41.917L45.6905 41.8993C45.746 46.0017 45.5796 50.1064 45.5796 54.2089C44.641 53.8694 43.5583 53.6719 42.4289 53.6719C38.2843 53.6719 34.7587 56.3211 33.4541 60.0198L33.4341 60.0863C33.139 61.0338 32.9682 62.1232 32.9682 63.2503C32.9682 63.7073 32.997 64.16 33.0503 64.6037L33.0459 64.5505C33.7825 69.09 37.6742 72.5158 42.3668 72.5158C42.5022 72.5158 42.6353 72.5136 42.7684 72.5069H42.7484C45.9945 72.4093 48.8123 70.6631 50.4054 68.0827L50.4275 68.0428C51.0199 67.2174 51.426 66.219 51.5613 65.134L51.5635 65.1029C51.8409 60.1396 51.73 55.2051 51.7566 50.2418C51.7832 39.0681 51.7299 27.9211 51.812 16.7764L51.8209 16.783Z" fill="white"/>
</svg>
