<svg xmlns="http://www.w3.org/2000/svg"  viewBox="0 0 100 100" width="500px" height="500px"><path fill="#c7ede6" d="M87.215,56.71C88.35,54.555,89,52.105,89,49.5c0-6.621-4.159-12.257-10.001-14.478 C78.999,35.015,79,35.008,79,35c0-11.598-9.402-21-21-21c-9.784,0-17.981,6.701-20.313,15.757C36.211,29.272,34.638,29,33,29 c-7.692,0-14.023,5.793-14.89,13.252C12.906,43.353,9,47.969,9,53.5C9,59.851,14.149,65,20.5,65c0.177,0,0.352-0.012,0.526-0.022 C21.022,65.153,21,65.324,21,65.5C21,76.822,30.178,86,41.5,86c6.437,0,12.175-2.972,15.934-7.614C59.612,80.611,62.64,82,66,82 c4.65,0,8.674-2.65,10.666-6.518C77.718,75.817,78.837,76,80,76c6.075,0,11-4.925,11-11C91,61.689,89.53,58.727,87.215,56.71z"/><path fill="#fdfcef" d="M66.5,39.5V40h-3v-0.5c0,0-4.242,0-5.5,0c-2.485,0-4.5-2.015-4.5-4.5 c0-2.333,1.782-4.229,4.055-4.455C57.533,30.364,57.5,30.187,57.5,30c0-2.485,2.015-4.5,4.5-4.5c1.438,0,2.703,0.686,3.527,1.736 C65.667,24.6,67.829,22.5,70.5,22.5c2.761,0,5,2.239,5,5c0,0.446-0.077,0.87-0.187,1.282c0.642-0.777,1.6-1.282,2.687-1.282 c1.781,0,3.234,1.335,3.455,3.055C81.636,30.533,81.813,30.5,82,30.5c2.485,0,4.5,2.015,4.5,4.5s-2.015,4.5-4.5,4.5s-9.5,0-9.5,0 H66.5z"/><path fill="#472b29" d="M70.5,22c3.033,0,5.5,2.467,5.5,5.5c0,0.016,0,0.031,0,0.047C76.602,27.192,77.29,27,78,27 c1.831,0,3.411,1.261,3.858,3.005C81.905,30.002,81.952,30,82,30c2.757,0,5,2.243,5,5s-2.243,5-5,5H66.5 c-0.276,0-0.5-0.224-0.5-0.5s0.224-0.5,0.5-0.5H82c2.206,0,4-1.794,4-4s-1.794-4-4-4c-0.117,0-0.23,0.017-0.343,0.032 l-0.141,0.019c-0.021,0.003-0.041,0.004-0.062,0.004c-0.246,0-0.462-0.185-0.495-0.437C80.768,29.125,79.496,28,78,28 c-0.885,0-1.723,0.401-2.301,1.1c-0.098,0.118-0.241,0.182-0.386,0.182c-0.078,0-0.156-0.018-0.228-0.056 c-0.209-0.107-0.314-0.346-0.254-0.573C74.946,28.218,75,27.852,75,27.5c0-2.481-2.019-4.5-4.5-4.5 c-2.381,0-4.347,1.872-4.474,4.263c-0.011,0.208-0.15,0.387-0.349,0.45c-0.05,0.016-0.101,0.024-0.152,0.024 c-0.15,0-0.296-0.069-0.392-0.192C64.362,26.563,63.221,26,62,26c-2.206,0-4,1.794-4,4c0,0.117,0.017,0.23,0.032,0.343 l0.019,0.141c0.016,0.134-0.022,0.268-0.106,0.373c-0.084,0.105-0.207,0.172-0.34,0.185C55.549,31.247,54,32.949,54,35 c0,2.206,1.794,4,4,4h5.5c0.276,0,0.5,0.224,0.5,0.5S63.776,40,63.5,40H58c-2.757,0-5-2.243-5-5c0-2.397,1.689-4.413,4.003-4.877 C57.001,30.082,57,30.041,57,30c0-2.757,2.243-5,5-5c1.176,0,2.293,0.416,3.183,1.164C65.781,23.76,67.945,22,70.5,22L70.5,22z"/><path fill="#472b29" d="M72 29c1.403 0 2.609.999 2.913 2.341C75.28 31.119 75.699 31 76.125 31c1.202 0 2.198.897 2.353 2.068C78.681 33.022 78.874 33 79.063 33c1.529 0 2.811 1.2 2.918 2.732C81.99 35.87 81.886 35.99 81.749 36c-.006 0-.012 0-.018 0-.13 0-.24-.101-.249-.232-.089-1.271-1.151-2.268-2.419-2.268-.229 0-.47.042-.738.127-.022.007-.045.01-.067.01-.055 0-.11-.02-.156-.054C78.038 33.537 78 33.455 78 33.375c0-1.034-.841-1.875-1.875-1.875-.447 0-.885.168-1.231.473-.047.041-.106.063-.165.063-.032 0-.063-.006-.093-.019-.088-.035-.148-.117-.155-.212C74.377 30.512 73.288 29.5 72 29.5c-.208 0-.425.034-.682.107-.023.007-.047.01-.07.01-.109 0-.207-.073-.239-.182-.038-.133.039-.271.172-.309C71.483 29.04 71.744 29 72 29L72 29zM58.117 30.5c1.326 0 2.508.897 2.874 2.182.038.133-.039.271-.172.309C60.795 32.997 60.772 33 60.75 33c-.109 0-.209-.072-.24-.182C60.205 31.748 59.221 31 58.117 31c-.117 0-.23.014-.342.029-.012.002-.023.003-.035.003-.121 0-.229-.092-.246-.217-.019-.137.077-.263.214-.281C57.842 30.516 57.978 30.5 58.117 30.5L58.117 30.5z"/><path fill="#fff" d="M15.5 51h-10C5.224 51 5 50.776 5 50.5S5.224 50 5.5 50h10c.276 0 .5.224.5.5S15.777 51 15.5 51zM18.5 51h-1c-.276 0-.5-.224-.5-.5s.224-.5.5-.5h1c.276 0 .5.224.5.5S18.777 51 18.5 51zM23.491 53H14.5c-.276 0-.5-.224-.5-.5s.224-.5.5-.5h8.991c.276 0 .5.224.5.5S23.767 53 23.491 53zM12.5 53h-1c-.276 0-.5-.224-.5-.5s.224-.5.5-.5h1c.276 0 .5.224.5.5S12.777 53 12.5 53zM9.5 53h-2C7.224 53 7 52.776 7 52.5S7.224 52 7.5 52h2c.276 0 .5.224.5.5S9.777 53 9.5 53zM15.5 55h-2c-.276 0-.5-.224-.5-.5s.224-.5.5-.5h2c.276 0 .5.224.5.5S15.776 55 15.5 55zM18.5 46c-.177 0-.823 0-1 0-.276 0-.5.224-.5.5 0 .276.224.5.5.5.177 0 .823 0 1 0 .276 0 .5-.224.5-.5C19 46.224 18.776 46 18.5 46zM18.5 48c-.177 0-4.823 0-5 0-.276 0-.5.224-.5.5 0 .276.224.5.5.5.177 0 4.823 0 5 0 .276 0 .5-.224.5-.5C19 48.224 18.776 48 18.5 48zM23.5 50c-.177 0-2.823 0-3 0-.276 0-.5.224-.5.5 0 .276.224.5.5.5.177 0 2.823 0 3 0 .276 0 .5-.224.5-.5C24 50.224 23.776 50 23.5 50z"/><g><path fill="#fff" d="M86.5 67h-10c-.276 0-.5-.224-.5-.5s.224-.5.5-.5h10c.276 0 .5.224.5.5S86.776 67 86.5 67zM90.5 67h-2c-.276 0-.5-.224-.5-.5s.224-.5.5-.5h2c.276 0 .5.224.5.5S90.776 67 90.5 67zM95.5 69h-10c-.276 0-.5-.224-.5-.5s.224-.5.5-.5h10c.276 0 .5.224.5.5S95.777 69 95.5 69zM83.5 69h-1c-.276 0-.5-.224-.5-.5s.224-.5.5-.5h1c.276 0 .5.224.5.5S83.776 69 83.5 69zM80.47 69H78.5c-.276 0-.5-.224-.5-.5s.224-.5.5-.5h1.97c.276 0 .5.224.5.5S80.746 69 80.47 69zM89.5 65h-5c-.276 0-.5-.224-.5-.5s.224-.5.5-.5h5c.276 0 .5.224.5.5S89.777 65 89.5 65zM86.5 71h-2c-.276 0-.5-.224-.5-.5s.224-.5.5-.5h2c.276 0 .5.224.5.5S86.776 71 86.5 71z"/></g><g><path fill="#fde751" d="M52,28.75c-12.841,0-23.25,10.409-23.25,23.25S39.159,75.25,52,75.25S75.25,64.841,75.25,52 S64.841,28.75,52,28.75z M52,71c-10.493,0-19-8.507-19-19s8.507-19,19-19s19,8.507,19,19S62.493,71,52,71z"/></g><g><path fill="#472b29" d="M52,75.95c-13.206,0-23.95-10.744-23.95-23.95S38.794,28.05,52,28.05S75.95,38.794,75.95,52 S65.206,75.95,52,75.95z M52,29.45c-12.434,0-22.55,10.115-22.55,22.55S39.566,74.55,52,74.55c12.435,0,22.55-10.115,22.55-22.55 S64.435,29.45,52,29.45z"/></g><g><path fill="#472b29" d="M70.623,46.987c-0.214,0-0.412-0.138-0.478-0.353c-0.085-0.275-0.175-0.548-0.272-0.816 c-0.375-1.048-0.849-2.069-1.407-3.036c-0.139-0.239-0.057-0.545,0.183-0.683c0.235-0.141,0.544-0.058,0.683,0.183 c0.589,1.019,1.088,2.095,1.483,3.197c0.102,0.283,0.197,0.571,0.286,0.86c0.082,0.265-0.066,0.544-0.33,0.625 C70.721,46.98,70.672,46.987,70.623,46.987z"/></g><g><path fill="#472b29" d="M52,72.035c-11.047,0-20.035-8.961-20.035-19.976c0-11.014,8.987-19.975,20.035-19.975 c5.733,0,11.203,2.457,15.007,6.74c0.287,0.323,0.565,0.657,0.831,1c0.169,0.219,0.129,0.533-0.089,0.702 c-0.22,0.167-0.533,0.129-0.702-0.089c-0.252-0.325-0.515-0.642-0.788-0.949c-3.613-4.07-8.811-6.404-14.259-6.404 c-10.496,0-19.035,8.512-19.035,18.975S41.504,71.035,52,71.035c10.496,0,19.035-8.513,19.035-18.976 c0-0.949-0.071-1.907-0.213-2.847c-0.041-0.272,0.146-0.527,0.42-0.568c0.269-0.038,0.527,0.146,0.568,0.42 c0.149,0.988,0.225,1.996,0.225,2.995C72.035,63.074,63.048,72.035,52,72.035z"/></g><g><path fill="#fdfcef" d="M36.5,71.5c0,0,1.567,0,3.5,0s3.5-1.567,3.5-3.5c0-1.781-1.335-3.234-3.055-3.455 C40.473,64.366,40.5,64.187,40.5,64c0-1.933-1.567-3.5-3.5-3.5c-1.032,0-1.95,0.455-2.59,1.165 c-0.384-1.808-1.987-3.165-3.91-3.165c-2.209,0-4,1.791-4,4c0,0.191,0.03,0.374,0.056,0.558C26.128,62.714,25.592,62.5,25,62.5 c-1.228,0-2.245,0.887-2.455,2.055C22.366,64.527,22.187,64.5,22,64.5c-1.933,0-3.5,1.567-3.5,3.5s1.567,3.5,3.5,3.5s7.5,0,7.5,0 V72h7V71.5z"/><path fill="#472b29" d="M38.25 67C38.112 67 38 66.888 38 66.75c0-1.223.995-2.218 2.218-2.218.034.009.737-.001 1.244.136.133.036.212.173.176.306-.036.134-.173.213-.306.176-.444-.12-1.1-.12-1.113-.118-.948 0-1.719.771-1.719 1.718C38.5 66.888 38.388 67 38.25 67zM31.5 71A.5.5 0 1 0 31.5 72 .5.5 0 1 0 31.5 71z"/><path fill="#472b29" d="M40,72h-3.5c-0.276,0-0.5-0.224-0.5-0.5s0.224-0.5,0.5-0.5H40c1.654,0,3-1.346,3-3 c0-1.496-1.125-2.768-2.618-2.959c-0.134-0.018-0.255-0.088-0.336-0.196s-0.115-0.244-0.094-0.377C39.975,64.314,40,64.16,40,64 c0-1.654-1.346-3-3-3c-0.85,0-1.638,0.355-2.219,1c-0.125,0.139-0.321,0.198-0.5,0.148c-0.182-0.049-0.321-0.195-0.36-0.379 C33.58,60.165,32.141,59,30.5,59c-1.93,0-3.5,1.57-3.5,3.5c0,0.143,0.021,0.28,0.041,0.418c0.029,0.203-0.063,0.438-0.242,0.54 c-0.179,0.102-0.396,0.118-0.556-0.01C25.878,63.155,25.449,63,25,63c-0.966,0-1.792,0.691-1.963,1.644 c-0.048,0.267-0.296,0.446-0.569,0.405C22.314,65.025,22.16,65,22,65c-1.654,0-3,1.346-3,3s1.346,3,3,3h7.5 c0.276,0,0.5,0.224,0.5,0.5S29.776,72,29.5,72H22c-2.206,0-4-1.794-4-4s1.794-4,4-4c0.059,0,0.116,0.002,0.174,0.006 C22.588,62.82,23.711,62,25,62c0.349,0,0.689,0.061,1.011,0.18C26.176,59.847,28.126,58,30.5,58c1.831,0,3.466,1.127,4.153,2.774 C35.333,60.276,36.155,60,37,60c2.206,0,4,1.794,4,4c0,0.048-0.001,0.095-0.004,0.142C42.739,64.59,44,66.169,44,68 C44,70.206,42.206,72,40,72z"/><path fill="#472b29" d="M34.5,71c-0.159,0-0.841,0-1,0c-0.276,0-0.5,0.224-0.5,0.5c0,0.276,0.224,0.5,0.5,0.5 c0.159,0,0.841,0,1,0c0.276,0,0.5-0.224,0.5-0.5C35,71.224,34.776,71,34.5,71z"/></g></svg>