<svg xmlns:xlink="http://www.w3.org/1999/xlink" xmlns="http://www.w3.org/2000/svg" id="Layer_1" data-name="Layer 1" viewBox="0 0 1323.46 383.59" width="1323.46"  height="383.59" ><polygon points="869.78 211.81 922.76 211.81 896.27 145.88 869.78 211.81" style="fill:#00677e"/><polygon points="605.8 43.82 605.8 88.79 790.32 88.79 790.32 135 727.35 135 727.35 294.8 669.08 294.8 669.08 135 605.8 135 605.8 339.77 1219.11 339.77 1219.11 294.8 1152.01 294.8 1109.34 230.94 1067.25 294.8 1016.63 294.8 1000.74 294.8 956.01 294.8 939.82 254.77 852.71 254.77 836.53 294.8 777.08 294.8 868.02 88.79 925.4 88.79 1010.59 281.13 1075.79 190.62 1003.98 88.79 1069.61 88.79 1110.81 148.24 1151.42 88.79 1214.4 88.79 1142.59 188.26 1219.11 294.8 1219.11 43.82 605.8 43.82" style="fill:#00677e"/><path d="M73.53,294.8v-206h50.62v206Z" style="fill:#006838"/><path d="M153.64,294.8V255.44l79-121.53H157.12V88.79H293.41v39.33L214.13,249.68h79.28V294.8Z" style="fill:#006838"/><path d="M322.91,294.8v-206h50.62v206Z" style="fill:#006838"/><path d="M531.82,294.8l-66-103.56V294.8H415.17v-206h44.29l66,103.58V88.79H576v206Z" style="fill:#006838"/></svg>