<svg xmlns="http://www.w3.org/2000/svg" xmlns:xlink="http://www.w3.org/1999/xlink" fill="none" viewBox="0 0 160 160" width="160"  height="160" >
  <defs>
    <path id="reuse-0" fill="#0A1411" d="M119.072 62.833c-11.075 0-20.083-9.008-20.083-20.083s9.008-20.083 20.083-20.083c11.076 0 20.084 9.008 20.084 20.083s-9.008 20.083-20.084 20.083Zm0-38.69c-10.189 0-18.606 8.418-18.606 18.607 0 10.19 8.417 18.606 18.606 18.606 10.19 0 18.607-8.417 18.607-18.606 0-10.19-8.417-18.607-18.607-18.607Z"/>
    <path id="reuse-1" fill="#0A1411" d="M67.535 106.396H26.483c-.886 0-1.772-.443-2.215-1.329-.443-.886-.296-1.772.148-2.511 4.282-6.054 14.471-22.445 16.243-43.415.148-1.329 1.182-2.362 2.51-2.362h40.905c.739 0 1.477.295 1.92.886.443.59.739 1.329.59 2.067-1.328 7.974-6.497 34.555-17.277 45.926-.443.443-1.181.738-1.772.738ZM43.17 58.256c-.591 0-.886.442-1.034.885-1.624 21.265-12.109 37.952-16.391 44.154-.296.295-.296.738-.148 1.033.148.296.443.591.886.591h41.052c.296 0 .591-.148.739-.295 10.337-11.075 15.505-37.36 16.834-45.187 0-.296 0-.591-.148-.739-.147-.295-.443-.295-.738-.295H43.17v-.148Z"/>
  </defs>
  <path fill="#0EB770" d="M127.785 48.214c-15.949-12.848-54.786-28.5-93.328-5.907-16.834 9.894-17.13 25.99-10.19 32.044 8.861 7.827 28.501 11.371 34.26 19.493 8.27 11.518 6.498 45.63 31.011 44.449 40.167-1.92 70.144-64.385 38.247-90.08Z"/>
  <path fill="#fff" d="M70.636 79.372h40.167c1.033 0 1.919.886 1.624 1.92-1.181 7.383-6.35 33.669-16.687 44.596-.295.296-.738.591-1.181.591H54.393c-1.33 0-2.215-1.624-1.33-2.658 4.43-6.202 14.325-22.298 15.949-42.825 0-.885.738-1.624 1.624-1.624Z"/>
  <path fill="#0EB770" d="M112.427 81.44c.148-1.034-.59-1.92-1.624-1.92H70.637c-.887 0-1.625.738-1.625 1.624-.148 2.363-6.054 23.184-6.35 25.4 0 0 4.43-.148 7.974 0 5.76.295 17.426-16.687 17.426-16.687h22.889l1.476-8.418Z"/>
  <path fill="#0A1411" d="M88.21 71.103h6.792c.148 0 .295.295.295.59-.147 2.068-1.033 9.008-2.805 12.11 0 .147-.148.147-.148.147h-6.793c-.295 0-.443-.443-.295-.738.738-1.625 2.362-6.055 2.658-11.519 0-.295.147-.59.295-.59Z"/>
  <path fill="#0A1411" d="M94.559 127.365H70.784l-.59-1.477h24.365c.295 0 .59-.147.738-.295 10.19-10.78 15.21-36.622 16.539-44.301 0-.296 0-.59-.147-.739a1.129 1.129 0 0 0-.739-.295H70.636c-.443 0-.886.443-.886.886l-1.476-.148c.147-1.328 1.181-2.215 2.362-2.215h40.167c.738 0 1.476.296 1.919.886.443.591.591 1.33.591 1.92-1.329 7.68-6.35 33.964-16.834 45.04-.591.443-1.182.738-1.92.738Z"/>
  <path fill="#0A1411" d="M96.036 104.033H80.235v1.477h15.8v-1.477ZM93.082 111.712H77.725v1.477h15.357v-1.477ZM74.328 106.248a1.477 1.477 0 1 0 0-2.953 1.477 1.477 0 0 0 0 2.953ZM71.375 113.927a1.477 1.477 0 1 0 0-2.953 1.477 1.477 0 0 0 0 2.953Z"/>
  <path fill="#fff" d="M119.072 62.095c10.684 0 19.345-8.661 19.345-19.345s-8.661-19.345-19.345-19.345c-10.683 0-19.344 8.661-19.344 19.345s8.661 19.345 19.344 19.345Z"/>
  <use xlink:href="#reuse-0"/>
  <path fill="#0EB770" d="M115.233 23.553s25.695 3.544 18.902 31.306c0 0 11.075-13.438-1.477-25.99-7.531-7.384-17.425-5.316-17.425-5.316Z"/>
  <use xlink:href="#reuse-0"/>
  <path fill="#0A1411" d="M119.072 51.905c-.443 0-.738-.295-.738-.738V34.776c0-.443.295-.739.738-.739s.739.296.739.739v16.391c0 .295-.296.738-.739.738Z"/>
  <path fill="#0A1411" d="M127.342 43.636h-16.539c-.443 0-.739-.296-.739-.739 0-.442.296-.738.739-.738h16.391c.443 0 .739.296.739.739 0 .442-.296.738-.591.738Z"/>
  <path fill="#fff" d="M43.17 57.517h40.904c1.034 0 1.92.886 1.773 2.067-1.33 7.531-6.498 34.26-16.983 45.63-.295.296-.738.591-1.329.591H26.483c-1.477 0-2.215-1.624-1.477-2.806 4.43-6.202 14.62-22.74 16.392-43.858.147-.886.886-1.624 1.772-1.624Z"/>
  <use xlink:href="#reuse-1"/>
  <path fill="#0EB770" d="M85.847 59.437c.147-1.034-.591-2.068-1.772-2.068H43.17c-.886 0-1.625.739-1.772 1.625a52.417 52.417 0 0 1-.886 6.94h44.005l1.33-6.497Z"/>
  <use xlink:href="#reuse-1"/>
  <path fill="#0A1411" d="M72.409 75.09H54.836v1.476h17.573V75.09ZM69.16 82.326H53.064v1.476H69.16v-1.477ZM66.059 90.152H50.406v1.477h15.653v-1.477ZM48.781 77.305a1.477 1.477 0 1 0 0-2.954 1.477 1.477 0 0 0 0 2.954ZM46.862 84.54a1.477 1.477 0 1 0 0-2.953 1.477 1.477 0 0 0 0 2.954ZM44.056 92.367a1.477 1.477 0 1 0 0-2.953 1.477 1.477 0 0 0 0 2.953ZM61.333 47.77h7.679c.148 0 .295.296.295.591-.295 2.215-1.181 10.337-3.248 13.734 0 .147-.148.147-.296.147h-7.53c-.296 0-.444-.443-.296-.886.886-1.92 2.806-6.793 3.1-13.142 0-.296.148-.443.296-.443Z"/>
  <path fill="#F8DB5E" d="M49.372 57.517c-5.169 0-9.303-4.726-9.303-10.632 0 5.906-4.135 10.632-9.304 10.632 5.169 0 9.304 4.725 9.304 10.632 0-5.907 4.134-10.632 9.303-10.632Z"/>
  <path fill="#0A1411" d="M40.069 68.888c-.444 0-.739-.296-.739-.739 0-5.464-3.84-9.894-8.565-9.894-.443 0-.738-.295-.738-.738s.295-.739.738-.739c4.726 0 8.565-4.43 8.565-9.893 0-.443.296-.739.739-.739.442 0 .738.296.738.739 0 5.463 3.84 9.894 8.565 9.894.443 0 .738.295.738.738s-.295.738-.738.738c-4.726 0-8.565 4.43-8.565 9.894 0 .443-.296.739-.739.739Zm-5.76-11.371c2.658 1.181 4.726 3.396 5.76 6.35 1.033-2.954 3.1-5.316 5.759-6.35-2.658-1.181-4.726-3.397-5.76-6.35-1.033 2.806-3.1 5.169-5.759 6.35Z"/>
</svg>