<svg xmlns="http://www.w3.org/2000/svg"  viewBox="0 0 100 100" width="500px" height="500px"><path d="M25.5,93C17.505,93,11,86.495,11,78.5v-53C11,17.505,17.505,11,25.5,11 h53C86.495,11,93,17.505,93,25.5v53C93,86.495,86.495,93,78.5,93H25.5z" opacity=".35"/><path fill="#f2f2f2" d="M23.5,91C15.505,91,9,84.495,9,76.5v-53C9,15.505,15.505,9,23.5,9h53C84.495,9,91,15.505,91,23.5v53 C91,84.495,84.495,91,76.5,91H23.5z"/><path fill="#70bfff" d="M79.5,15.5h-59c-2.761,0-5,2.239-5,5v59c0,2.761,2.239,5,5,5h59c2.761,0,5-2.239,5-5v-59 C84.5,17.739,82.261,15.5,79.5,15.5z"/><path fill="none" stroke="#40396e" stroke-linecap="round" stroke-linejoin="round" stroke-miterlimit="10" stroke-width="3" d="M76.5,84.5h-53c-4.418,0-8-3.582-8-8v-53c0-4.418,3.582-8,8-8h53c4.418,0,8,3.582,8,8v53C84.5,80.918,80.918,84.5,76.5,84.5z"/><path fill="#fff" d="M39.704,75.242c-0.652,0-1.175-0.181-1.571-0.54c-0.396-0.361-0.599-0.821-0.61-1.38 c-0.012-0.559,0.214-1.128,0.681-1.711l4.434-5.447l-4.05-4.957c-0.489-0.605-0.722-1.188-0.699-1.745 c0.023-0.559,0.232-1.013,0.628-1.362c0.395-0.348,0.919-0.523,1.571-0.523c0.628,0,1.152,0.104,1.571,0.314 c0.419,0.209,0.814,0.559,1.187,1.047l2.793,3.631l2.828-3.631c0.372-0.488,0.768-0.838,1.187-1.047 c0.419-0.209,0.943-0.314,1.571-0.314c0.651,0,1.175,0.18,1.571,0.54c0.395,0.362,0.599,0.821,0.611,1.38 c0.011,0.559-0.227,1.129-0.716,1.711l-4.05,4.957l4.469,5.447c0.488,0.583,0.721,1.152,0.698,1.711 c-0.024,0.559-0.239,1.019-0.646,1.38c-0.407,0.359-0.937,0.54-1.589,0.54c-0.606,0-1.123-0.11-1.553-0.331 c-0.431-0.222-0.833-0.564-1.205-1.03l-3.177-4.05l-3.212,4.05c-0.372,0.443-0.763,0.78-1.17,1.013 C40.85,75.125,40.333,75.242,39.704,75.242z"/><path fill="#fff" d="M60.198,74.997c-0.884,0-1.525-0.203-1.92-0.611c-0.396-0.407-0.593-1.007-0.593-1.797 c0-0.512,0.128-0.989,0.384-1.432c0.256-0.443,0.605-0.896,1.047-1.362l6.564-6.912c0.977-1.047,1.681-1.978,2.112-2.793 s0.646-1.629,0.646-2.444c0-2.095-1.292-3.142-3.875-3.142c-0.676,0-1.368,0.094-2.078,0.28c-0.71,0.186-1.449,0.512-2.217,0.977 c-0.628,0.373-1.204,0.454-1.728,0.244c-0.524-0.209-0.908-0.569-1.152-1.082c-0.244-0.511-0.303-1.052-0.175-1.623 c0.128-0.57,0.506-1.041,1.135-1.414c1.024-0.628,2.141-1.1,3.352-1.414C62.909,50.157,64.108,50,65.295,50 c2.746,0,4.847,0.611,6.301,1.833c1.454,1.221,2.182,2.961,2.182,5.219c0,1.49-0.344,2.915-1.03,4.278 c-0.687,1.361-1.81,2.834-3.369,4.415l-4.748,4.818h8.1c1.512,0,2.269,0.734,2.269,2.199c0,1.49-0.757,2.235-2.269,2.235H60.198z"/></svg>