<?xml version="1.0" encoding="utf-8"?>
<!-- Generator: Adobe Illustrator 25.2.3, SVG Export Plug-In . SVG Version: 6.00 Build 0)  -->
<svg version="1.1" id="Layer_1" xmlns="http://www.w3.org/2000/svg" xmlns:xlink="http://www.w3.org/1999/xlink" x="0px" y="0px"
	 viewBox="0 0 750 500" style="enable-background:new 0 0 750 500;" xml:space="preserve">
<style type="text/css">
	.st0{fill:none;stroke:#4EBE66;stroke-width:0.25;stroke-miterlimit:10;}
	.st1{fill:#E5E5E5;}
	.st2{fill:#325EAF;}
	.st3{fill:#4A4F52;}
	.st4{fill:#4EBE66;}
	.st5{opacity:0.6;}
	.st6{fill:none;stroke:#B9BCC3;stroke-width:0.5;stroke-miterlimit:10;}
	.st7{fill:none;stroke:#325EAF;stroke-miterlimit:10;}
</style>
<g>
	<g id="OBJECTS">
		<line class="st0" x1="-24" y1="267" x2="259" y2="-16"/>
		<line class="st0" x1="-24" y1="251.6" x2="243.6" y2="-16"/>
		<line class="st0" x1="-24" y1="236.3" x2="228.3" y2="-16"/>
		<line class="st0" x1="-24" y1="221" x2="213" y2="-16"/>
		<line class="st0" x1="-24" y1="205.6" x2="197.6" y2="-16"/>
		<polygon class="st1" points="-24,355.3 136.7,516 -24,516 		"/>
		<polygon class="st2" points="333.3,516 271.5,454.2 209.7,516 		"/>
		<polygon class="st3" points="353.8,-16 389.7,19.9 425.6,-16 		"/>
		
			<rect x="645.9" y="208.2" transform="matrix(0.7071 -0.7071 0.7071 0.7071 33.8559 537.2942)" class="st2" width="39.2" height="39.2"/>
		<polygon class="st3" points="774,165.3 774,92.1 665.9,-16 592.7,-16 		"/>
		<polygon class="st4" points="774,3.9 774,-16 732.2,-16 619.8,96.4 507.4,-16 445.7,-16 619.8,158.1 		"/>
		<g class="st5">
			<line class="st6" x1="774" y1="195.5" x2="562.5" y2="-16"/>
			<line class="st6" x1="774" y1="205.2" x2="552.8" y2="-16"/>
			<line class="st6" x1="774" y1="214.9" x2="543.1" y2="-16"/>
			<line class="st6" x1="774" y1="224.5" x2="533.5" y2="-16"/>
			<line class="st6" x1="774" y1="234.2" x2="523.8" y2="-16"/>
		</g>
		<polygon class="st3" points="635.3,440.1 774,301.5 774,217.2 551.1,440.1 626.9,516 711.2,516 		"/>
		<polygon class="st3" points="-24,333.1 95.8,452.8 32.6,516 113.8,516 177,452.8 -24,251.8 		"/>
		<polygon class="st4" points="-24,134.2 -24,195.9 144.9,27.1 101.8,-16 40.1,-16 83.2,27.1 		"/>
		<polygon class="st4" points="716.8,516 774,458.8 774,381.7 639.7,516 		"/>
		<circle class="st4" cx="18.9" cy="416.2" r="1.5"/>
		<circle class="st4" cx="18.9" cy="402.4" r="1.5"/>
		<circle class="st4" cx="18.9" cy="388.5" r="1.5"/>
		<circle class="st4" cx="18.9" cy="374.7" r="1.5"/>
		<circle class="st4" cx="18.9" cy="360.9" r="1.5"/>
		<circle class="st4" cx="18.9" cy="347" r="1.5"/>
		<circle class="st4" cx="18.9" cy="333.2" r="1.5"/>
		<circle class="st4" cx="32.8" cy="416.2" r="1.5"/>
		<circle class="st4" cx="32.8" cy="402.4" r="1.5"/>
		<circle class="st4" cx="32.8" cy="388.5" r="1.5"/>
		<circle class="st4" cx="32.8" cy="374.7" r="1.5"/>
		<circle class="st4" cx="32.8" cy="360.9" r="1.5"/>
		<circle class="st4" cx="32.8" cy="347" r="1.5"/>
		<circle class="st4" cx="32.8" cy="333.2" r="1.5"/>
		<circle class="st4" cx="46.6" cy="416.2" r="1.5"/>
		<circle class="st4" cx="46.6" cy="402.4" r="1.5"/>
		<circle class="st4" cx="46.6" cy="388.5" r="1.5"/>
		<circle class="st4" cx="46.6" cy="374.7" r="1.5"/>
		<circle class="st4" cx="46.6" cy="360.9" r="1.5"/>
		<circle class="st4" cx="46.6" cy="347" r="1.5"/>
		<circle class="st4" cx="46.6" cy="333.2" r="1.5"/>
		<circle class="st4" cx="60.4" cy="416.2" r="1.5"/>
		<circle class="st4" cx="60.4" cy="402.4" r="1.5"/>
		<circle class="st4" cx="60.4" cy="388.5" r="1.5"/>
		<circle class="st4" cx="60.4" cy="374.7" r="1.5"/>
		<circle class="st4" cx="60.4" cy="360.9" r="1.5"/>
		<circle class="st4" cx="60.4" cy="347" r="1.5"/>
		<circle class="st4" cx="60.4" cy="333.2" r="1.5"/>
		<circle class="st4" cx="74.2" cy="416.2" r="1.5"/>
		<circle class="st4" cx="74.2" cy="402.4" r="1.5"/>
		<circle class="st4" cx="74.2" cy="388.5" r="1.5"/>
		<circle class="st4" cx="74.2" cy="374.7" r="1.5"/>
		<circle class="st4" cx="74.2" cy="360.9" r="1.5"/>
		<circle class="st4" cx="74.2" cy="347" r="1.5"/>
		<circle class="st4" cx="74.2" cy="333.2" r="1.5"/>
		<circle class="st3" cx="624" cy="229.3" r="1.5"/>
		<circle class="st3" cx="637.8" cy="229.3" r="1.5"/>
		<circle class="st3" cx="651.6" cy="229.3" r="1.5"/>
		<circle class="st3" cx="665.5" cy="229.3" r="1.5"/>
		<circle class="st3" cx="624" cy="243.1" r="1.5"/>
		<circle class="st3" cx="637.8" cy="243.1" r="1.5"/>
		<circle class="st3" cx="651.6" cy="243.1" r="1.5"/>
		<circle class="st3" cx="665.5" cy="243.1" r="1.5"/>
		<circle class="st3" cx="624" cy="256.9" r="1.5"/>
		<circle class="st3" cx="637.8" cy="256.9" r="1.5"/>
		<circle class="st3" cx="651.6" cy="256.9" r="1.5"/>
		<circle class="st3" cx="665.5" cy="256.9" r="1.5"/>
		<circle class="st3" cx="624" cy="270.7" r="1.5"/>
		<circle class="st3" cx="637.8" cy="270.7" r="1.5"/>
		<circle class="st3" cx="651.6" cy="270.7" r="1.5"/>
		<circle class="st3" cx="665.5" cy="270.7" r="1.5"/>
		<path class="st3" d="M533.7,466.6c-0.6-0.6-0.6-1.5,0-2.1c0.6-0.6,1.5-0.6,2.1,0c0.6,0.6,0.6,1.5,0,2.1c0,0,0,0,0,0
			C535.2,467.2,534.3,467.2,533.7,466.6z"/>
		<path class="st3" d="M524,476.4c-0.6-0.6-0.6-1.5,0-2.1c0.6-0.6,1.5-0.6,2.1,0c0.6,0.6,0.6,1.5,0,2.1c0,0,0,0,0,0
			C525.5,476.9,524.5,476.9,524,476.4z"/>
		<path class="st3" d="M514.1,486.1c-0.6-0.6-0.6-1.5,0-2.1c0.6-0.6,1.5-0.6,2.1,0s0.6,1.5,0,2.1
			C515.6,486.7,514.7,486.7,514.1,486.1L514.1,486.1z"/>
		<path class="st3" d="M504.4,495.9c-0.6-0.6-0.6-1.5,0-2.1c0.6-0.6,1.5-0.6,2.1,0c0.6,0.6,0.6,1.5,0,2.1c0,0,0,0,0,0
			C505.9,496.5,504.9,496.5,504.4,495.9z"/>
		<circle class="st3" cx="525" cy="455.8" r="1.5"/>
		<path class="st3" d="M514.1,466.6c-0.6-0.6-0.6-1.5,0-2.1c0.6-0.6,1.5-0.6,2.1,0c0.6,0.6,0.6,1.5,0,2.1l0,0
			C515.7,467.2,514.8,467.2,514.1,466.6C514.2,466.6,514.2,466.6,514.1,466.6z"/>
		<path class="st3" d="M504.4,476.4c-0.6-0.6-0.6-1.5,0-2.1c0.6-0.6,1.5-0.6,2.1,0c0.6,0.6,0.6,1.5,0,2.1
			C505.9,476.9,504.9,476.9,504.4,476.4C504.4,476.4,504.4,476.4,504.4,476.4z"/>
		<path class="st3" d="M494.6,486.1c-0.6-0.6-0.6-1.5,0-2.1c0.6-0.6,1.5-0.6,2.1,0c0.6,0.6,0.6,1.5,0,2.1
			C496.1,486.7,495.2,486.7,494.6,486.1C494.6,486.2,494.6,486.2,494.6,486.1z"/>
		<path class="st3" d="M514.1,447c-0.6-0.6-0.6-1.5,0-2.1c0.6-0.6,1.5-0.6,2.1,0c0.6,0.6,0.6,1.5,0,2.1
			C515.6,447.6,514.7,447.6,514.1,447L514.1,447z"/>
		<circle class="st3" cx="505.4" cy="455.8" r="1.5"/>
		<path class="st3" d="M494.6,466.6c-0.6-0.6-0.6-1.5,0-2.1c0.6-0.6,1.5-0.6,2.1,0c0.6,0.6,0.6,1.5,0,2.1c0,0,0,0,0,0
			C496.1,467.2,495.2,467.2,494.6,466.6z"/>
		<path class="st3" d="M484.8,476.4c-0.6-0.5-0.7-1.5-0.2-2.1s1.5-0.7,2.1-0.2c0.1,0.1,0.1,0.1,0.2,0.2c0.5,0.6,0.4,1.5-0.2,2.1
			C486.1,476.8,485.3,476.8,484.8,476.4z"/>
		<path class="st3" d="M504.4,437.3c-0.6-0.6-0.6-1.5,0-2.1c0.6-0.6,1.5-0.6,2.1,0c0.6,0.6,0.6,1.5,0,2.1
			C505.9,437.8,504.9,437.8,504.4,437.3C504.4,437.3,504.4,437.3,504.4,437.3z"/>
		<path class="st3" d="M494.6,447c-0.6-0.6-0.6-1.5,0-2.1c0.6-0.6,1.5-0.6,2.1,0c0.6,0.6,0.6,1.5,0,2.1
			C496.1,447.6,495.2,447.6,494.6,447C494.6,447,494.6,447,494.6,447z"/>
		<path class="st3" d="M484.8,456.8c-0.6-0.6-0.6-1.5,0-2.1c0.6-0.5,1.5-0.5,2.1,0.1c0.5,0.6,0.5,1.4,0,2
			C486.3,457.4,485.4,457.4,484.8,456.8z"/>
		<path class="st3" d="M475,466.6c-0.6-0.6-0.6-1.5,0-2.1c0.6-0.5,1.5-0.5,2.1,0.1c0.5,0.6,0.5,1.4,0,2
			C476.5,467.2,475.6,467.2,475,466.6z"/>
		<line class="st7" x1="774" y1="314.8" x2="572.8" y2="516"/>
		<line class="st7" x1="774" y1="325.7" x2="583.7" y2="516"/>
		<line class="st7" x1="774" y1="336.6" x2="594.6" y2="516"/>
		<line class="st7" x1="774" y1="347.5" x2="605.5" y2="516"/>
		<line class="st7" x1="774" y1="358.4" x2="616.4" y2="516"/>
		<g class="st5">
			<line class="st6" x1="-24" y1="233.4" x2="258.6" y2="516"/>
			<line class="st6" x1="-24" y1="220.5" x2="271.5" y2="516"/>
			<line class="st6" x1="-24" y1="207.6" x2="284.4" y2="516"/>
			<line class="st6" x1="-24" y1="194.7" x2="297.3" y2="516"/>
			<line class="st6" x1="-24" y1="181.8" x2="310.2" y2="516"/>
		</g>
		
			<rect x="42.8" y="200.6" transform="matrix(0.7071 -0.7071 0.7071 0.7071 -139.3711 113.309)" class="st3" width="48.6" height="48.6"/>
		<polygon class="st4" points="-24,420.2 71.8,516 -24,516 		"/>
		<polygon class="st2" points="341.5,-16 269.3,-16 112,141.3 -24,5.2 -24,77.5 112,213.5 		"/>
		<polygon class="st3" points="40.1,-16 21.8,-16 -24,29.8 -24,91.5 61.8,5.7 		"/>
		<circle class="st3" cx="70.5" cy="85.7" r="1.5"/>
		<circle class="st3" cx="84.4" cy="85.7" r="1.5"/>
		<circle class="st3" cx="98.2" cy="85.7" r="1.5"/>
		<circle class="st3" cx="112" cy="85.7" r="1.5"/>
		<circle class="st3" cx="125.9" cy="85.7" r="1.5"/>
		<circle class="st3" cx="139.7" cy="85.7" r="1.5"/>
		<circle class="st3" cx="153.5" cy="85.7" r="1.5"/>
		<circle class="st3" cx="70.5" cy="99.5" r="1.5"/>
		<circle class="st3" cx="84.4" cy="99.5" r="1.5"/>
		<circle class="st3" cx="98.2" cy="99.5" r="1.5"/>
		<circle class="st3" cx="112" cy="99.5" r="1.5"/>
		<circle class="st3" cx="125.9" cy="99.5" r="1.5"/>
		<circle class="st3" cx="139.7" cy="99.5" r="1.5"/>
		<circle class="st3" cx="153.5" cy="99.5" r="1.5"/>
		<circle class="st3" cx="70.5" cy="113.4" r="1.5"/>
		<circle class="st3" cx="84.4" cy="113.4" r="1.5"/>
		<circle class="st3" cx="98.2" cy="113.4" r="1.5"/>
		<circle class="st3" cx="112" cy="113.4" r="1.5"/>
		<circle class="st3" cx="125.9" cy="113.4" r="1.5"/>
		<circle class="st3" cx="139.7" cy="113.4" r="1.5"/>
		<circle class="st3" cx="153.5" cy="113.4" r="1.5"/>
		<circle class="st3" cx="70.5" cy="127.2" r="1.5"/>
		<circle class="st3" cx="84.4" cy="127.2" r="1.5"/>
		<circle class="st3" cx="98.2" cy="127.2" r="1.5"/>
		<circle class="st3" cx="112" cy="127.2" r="1.5"/>
		<circle class="st3" cx="125.9" cy="127.2" r="1.5"/>
		<circle class="st3" cx="139.7" cy="127.2" r="1.5"/>
		<circle class="st3" cx="153.5" cy="127.2" r="1.5"/>
		<circle class="st3" cx="70.5" cy="141" r="1.5"/>
		<circle class="st3" cx="84.4" cy="141" r="1.5"/>
		<circle class="st3" cx="98.2" cy="141" r="1.5"/>
		<circle class="st3" cx="112" cy="141" r="1.5"/>
		<circle class="st3" cx="125.9" cy="141" r="1.5"/>
		<circle class="st3" cx="139.7" cy="141" r="1.5"/>
		<circle class="st3" cx="153.5" cy="141" r="1.5"/>
	</g>
</g>
</svg>
