<svg width="1440" height="944" viewBox="0 0 1440 944" fill="none" xmlns="http://www.w3.org/2000/svg">
<mask id="mask0" mask-type="alpha" maskUnits="userSpaceOnUse" x="0" y="0" width="1440" height="944">
<rect width="1440" height="944" fill="#C4C4C4"/>
</mask>
<g mask="url(#mask0)">
<rect y="-1" width="1440" height="945" fill="url(#paint0_linear)"/>
<g clip-path="url(#clip0)">
<mask id="mask1" mask-type="alpha" maskUnits="userSpaceOnUse" x="570" y="-288" width="971" height="830">
<path fill-rule="evenodd" clip-rule="evenodd" d="M794.405 145.831C803.313 313.247 971.565 416.029 1098.99 331.893L1118.51 319.002C1254.63 229.122 1434.47 338.071 1445.18 516.894L1446.65 541.544L1445.81 541.565L1444.34 516.915C1433.68 338.8 1254.54 230.282 1118.96 319.806L1099.44 332.698C971.48 417.191 802.51 313.973 793.566 145.845L790.443 87.1722C783.999 -33.8972 672.173 -117.397 570.718 -76.8939L570.4 -77.7679C672.392 -118.487 784.804 -34.5501 791.281 87.1582L794.405 145.831ZM801.122 131.589C810.034 299.005 978.286 401.787 1105.7 317.652L1125.23 304.76C1261.35 214.879 1441.19 323.829 1451.89 502.652L1453.37 527.302L1452.53 527.323L1451.05 502.673C1440.4 324.558 1261.26 216.04 1125.68 305.565L1106.16 318.456C978.197 402.949 809.232 299.73 800.283 131.603L797.16 72.931C790.72 -48.1397 678.894 -131.639 577.435 -91.1355L577.121 -92.0104C679.113 -132.729 791.525 -48.7925 798.002 72.9143L801.122 131.589ZM1112.42 303.41C985.003 387.545 816.751 284.763 807.843 117.346L804.719 58.6726C798.242 -63.0342 685.831 -146.971 583.839 -106.252L584.152 -105.377C685.611 -145.881 797.436 -62.3859 803.881 58.6885L807.004 117.36C815.949 285.489 984.914 388.707 1112.88 304.213L1132.4 291.322C1267.98 201.798 1447.12 310.316 1457.77 488.431L1459.25 513.081L1460.09 513.059L1458.61 488.41C1447.91 309.587 1268.07 200.638 1131.94 290.519L1112.42 303.41ZM814.56 103.104C823.468 270.521 991.72 373.303 1119.14 289.167L1138.67 276.276C1274.78 186.395 1454.63 295.345 1465.33 474.168L1466.81 498.817L1465.97 498.838L1464.49 474.189C1453.83 296.074 1274.7 187.555 1139.12 277.08L1119.59 289.972C991.635 374.464 822.669 271.246 813.721 103.118L810.598 44.4468C804.153 -76.6277 692.332 -160.124 590.873 -119.62L590.554 -120.498C692.547 -161.212 804.959 -77.2759 811.436 44.4309L814.56 103.104ZM1125.86 274.925C998.441 359.061 830.189 256.279 821.281 88.8612L818.157 30.1884C811.68 -91.5184 699.269 -175.455 597.276 -134.741L597.59 -133.861C699.049 -174.365 810.874 -90.8702 817.319 30.2043L820.438 88.8761C829.387 257.004 998.352 360.223 1126.32 275.729L1145.84 262.838C1281.42 173.313 1460.55 281.831 1471.21 459.947L1472.69 484.596L1473.52 484.575L1472.05 459.926C1461.35 281.102 1281.5 172.153 1145.38 262.034L1125.86 274.925ZM827.997 74.6182C836.906 242.037 1005.16 344.819 1132.58 260.682L1152.1 247.791C1288.22 157.911 1468.07 266.86 1478.77 445.683L1480.24 470.333L1479.4 470.354L1477.93 445.704C1467.27 267.589 1288.14 159.071 1152.56 248.596L1133.03 261.487C1005.07 345.98 836.103 242.762 827.159 74.6341L824.036 15.9625C817.591 -105.112 705.766 -188.607 604.311 -148.104L603.993 -148.983C705.986 -189.697 818.397 -105.76 824.874 15.9467L827.997 74.6182ZM1139.3 246.441C1011.88 330.576 843.627 227.794 834.714 60.3765L831.591 1.705C825.118 -120.003 712.707 -203.939 610.714 -163.225L611.028 -162.346C712.487 -202.849 824.312 -119.354 830.753 1.7209L833.876 60.3924C842.825 228.52 1011.79 331.738 1139.75 247.245L1159.27 234.354C1294.86 144.829 1473.99 253.347 1484.65 431.462L1486.12 456.112L1486.96 456.091L1485.49 431.441C1474.79 252.618 1294.94 143.669 1158.82 233.549L1139.3 246.441ZM841.436 46.134C850.344 213.552 1018.6 316.334 1146.01 232.199L1165.54 219.307C1301.66 129.426 1481.5 238.376 1492.21 417.199L1493.68 441.849L1492.84 441.87L1491.37 417.22C1480.71 239.105 1301.57 130.587 1165.99 220.111L1146.47 233.003C1018.51 317.496 849.541 214.278 840.597 46.1499L837.474 -12.5216C831.029 -133.596 719.204 -217.091 617.745 -176.587L617.431 -177.467C719.424 -218.181 831.835 -134.244 838.312 -12.5375L841.436 46.134ZM1152.73 217.957C1025.31 302.093 857.061 199.311 848.152 31.8923L845.029 -26.7791C838.552 -148.486 726.141 -232.423 624.148 -191.708L624.466 -190.83C725.926 -231.334 837.746 -147.838 844.191 -26.7633L847.314 31.9081C856.263 200.035 1025.23 303.254 1153.19 218.761L1172.71 205.869C1308.29 116.345 1487.43 224.863 1498.08 402.978L1499.56 427.628L1500.4 427.607L1498.92 402.957C1488.22 224.134 1308.38 115.184 1172.26 205.065L1152.73 217.957ZM854.869 17.6506C863.782 185.068 1032.03 287.85 1159.45 203.714L1178.98 190.823C1315.1 100.942 1494.94 209.892 1505.64 388.715L1507.12 413.365L1506.28 413.386L1504.8 388.736C1494.14 210.621 1315.01 102.103 1179.43 191.627L1159.91 204.519C1031.95 289.012 862.98 185.793 854.031 17.6665L850.912 -41.0058C844.467 -162.08 732.643 -245.575 631.183 -205.072L630.869 -205.951C732.862 -246.665 845.273 -162.729 851.75 -41.0217L854.869 17.6506ZM1166.17 189.472C1038.75 273.608 870.499 170.826 861.591 3.40809L858.467 -55.2634C851.99 -176.97 739.579 -260.907 637.586 -220.193L637.904 -219.314C739.36 -259.817 851.184 -176.322 857.629 -55.2475L860.752 3.42399C869.696 171.551 1038.66 274.77 1166.63 190.277L1186.15 177.385C1321.73 87.8603 1500.86 196.379 1511.52 374.494L1513 399.143L1513.84 399.123L1512.36 374.473C1501.66 195.65 1321.81 86.7004 1185.69 176.581L1166.17 189.472ZM868.308 -10.8336C877.22 156.583 1045.47 259.366 1172.89 175.23L1192.41 162.339C1328.53 72.4579 1508.38 181.408 1519.08 360.231L1520.55 384.88L1519.72 384.901L1518.24 360.252C1507.58 182.137 1328.45 73.6182 1192.87 163.143L1173.34 176.035C1045.38 260.527 876.417 157.309 867.469 -10.8177L864.346 -69.4892C857.905 -190.564 746.081 -274.059 644.621 -233.556L644.307 -234.435C746.3 -275.149 858.711 -191.213 865.184 -69.5051L868.308 -10.8336ZM1179.61 160.988C1052.19 245.124 883.937 142.342 875.029 -25.0762L871.905 -83.7476C865.428 -205.454 753.017 -289.391 651.024 -248.677L651.338 -247.797C752.798 -288.301 864.622 -204.806 871.067 -83.7317L874.186 -25.0594C883.134 143.067 1052.1 246.286 1180.06 161.792L1199.59 148.901C1335.17 59.3762 1514.3 167.894 1524.96 346.01L1526.43 370.659L1527.27 370.638L1525.8 345.988C1515.1 167.165 1335.25 58.2159 1199.13 148.097L1179.61 160.988ZM881.746 -39.3178C890.654 128.1 1058.91 230.882 1186.33 146.746L1205.85 133.854C1341.97 43.9739 1521.82 152.923 1532.52 331.746L1533.99 356.396L1533.15 356.417L1531.68 331.767C1521.02 153.652 1341.89 45.1342 1206.3 134.659L1186.78 147.55C1058.82 232.043 889.856 128.825 880.907 -39.302L877.783 -97.978C871.339 -219.048 759.519 -302.544 658.059 -262.04L657.741 -262.919C759.734 -303.633 872.145 -219.696 878.622 -97.9893L881.746 -39.3178ZM1193.05 132.503C1065.63 216.639 897.375 113.857 888.463 -53.5595L885.344 -112.232C878.866 -233.939 766.455 -317.875 664.462 -277.161L664.776 -276.282C766.236 -316.785 878.06 -233.29 884.504 -112.221L887.624 -53.5436C896.572 114.582 1065.54 217.801 1193.5 133.308L1213.02 120.416C1348.6 30.8918 1527.74 139.41 1538.4 317.525L1539.87 342.175L1540.71 342.154L1539.24 317.504C1528.53 138.681 1348.69 29.7314 1212.57 119.612L1193.05 132.503Z" fill="#FF9636"/>
</mask>
<g mask="url(#mask1)">
<path d="M691.246 813.116L1770.16 458.607L1481.39 -169.259L656.06 -60.2676L691.246 813.116Z" fill="url(#paint1_linear)" fill-opacity="0.8"/>
</g>
</g>
<g clip-path="url(#clip1)">
<mask id="mask2" mask-type="alpha" maskUnits="userSpaceOnUse" x="-348" y="310" width="1349" height="939">
<path fill-rule="evenodd" clip-rule="evenodd" d="M210.064 454.858C409.372 379.236 614.218 520.74 580.892 711.021L575.785 740.175C540.182 943.443 758.08 1095.17 971.567 1015.76L1000.99 1004.82L1000.59 1003.84L971.166 1014.78C758.524 1093.87 541.489 942.749 576.951 740.284L582.057 711.13C615.527 520.047 409.809 377.937 209.655 453.883L139.806 480.383C-4.32687 535.069 -158.145 448.813 -162.429 310.901L-163.607 310.983C-159.302 449.626 -4.67856 536.333 140.214 481.359L210.064 454.858ZM196.897 469.921C396.206 394.304 601.053 535.808 567.725 726.083L562.618 755.237C527.015 958.507 744.913 1110.23 958.401 1030.83L987.828 1019.88L987.427 1018.9L958 1029.85C745.358 1108.94 528.322 957.814 563.784 755.347L568.89 726.193C602.36 535.109 396.643 393.004 196.488 468.945L126.639 495.446C-17.4927 550.136 -171.311 463.881 -175.596 325.963L-176.773 326.05C-172.468 464.693 -17.8443 551.401 127.047 496.427L196.897 469.921ZM554.558 741.146C587.886 550.871 383.039 409.366 183.731 484.989L113.88 511.49C-31.0112 566.463 -185.635 479.756 -189.94 341.113L-188.763 341.026C-184.478 478.944 -30.6653 565.2 113.474 510.514L183.322 484.013C383.476 408.067 589.193 550.172 555.724 741.261L550.618 770.415C515.156 972.879 732.191 1124 944.833 1044.91L974.261 1033.97L974.661 1034.95L945.234 1045.89C731.746 1125.3 513.849 973.572 549.451 770.3L554.558 741.146ZM170.564 500.051C369.872 424.429 574.718 565.933 541.392 756.213L536.285 785.368C500.682 988.637 718.58 1140.36 932.067 1060.96L961.495 1050.01L961.094 1049.03L931.666 1059.98C719.024 1139.07 501.989 987.943 537.45 785.477L542.557 756.323C576.026 565.24 370.31 423.135 170.155 499.075L100.307 525.576C-43.8322 580.263 -197.644 494.012 -201.929 356.094L-203.112 356.177C-198.802 494.819 -44.1781 581.526 100.713 526.552L170.564 500.051ZM528.224 771.276C561.552 581.001 356.706 439.497 157.397 515.119L87.5473 541.62C-57.3439 596.594 -211.968 509.886 -216.278 371.245L-215.096 371.156C-210.811 509.074 -56.998 595.33 87.1409 540.644L156.988 514.138C357.143 438.197 562.86 580.302 529.391 771.391L524.285 800.545C488.822 1003.01 705.857 1154.13 918.5 1075.04L947.928 1064.1L948.329 1065.07L918.9 1076.02C705.413 1155.43 487.515 1003.7 523.118 800.43L528.224 771.276ZM144.229 530.182C343.539 454.559 548.386 596.064 515.058 786.344L509.952 815.498C474.349 1018.77 692.246 1170.49 905.734 1091.08L935.161 1080.14L934.761 1079.16L905.333 1090.11C692.691 1169.2 475.656 1018.07 511.118 815.608L516.224 786.454C549.694 595.37 343.976 453.26 143.822 529.206L73.974 555.706C-70.1649 610.393 -223.978 524.137 -228.262 386.224L-229.445 386.307C-225.135 524.949 -70.5108 611.656 74.3804 556.682L144.229 530.182ZM501.892 801.406C535.22 611.131 330.373 469.627 131.062 545.244L61.2135 571.745C-83.6766 626.724 -238.3 540.017 -242.611 401.375L-241.428 401.286C-237.143 539.204 -83.3307 625.461 60.8071 570.769L130.655 544.268C330.81 468.328 536.527 610.432 503.057 801.516L497.951 830.672C462.489 1033.14 679.524 1184.26 892.166 1105.17L921.594 1094.22L921.995 1095.2L892.567 1106.15C679.08 1185.56 461.182 1033.83 496.785 830.561L501.892 801.406ZM117.896 560.312C317.206 484.69 522.052 626.194 488.725 816.469L483.618 845.626C448.015 1048.9 665.913 1200.62 879.401 1121.21L908.829 1110.27L908.428 1109.29L879 1120.23C666.358 1199.33 449.322 1048.2 484.784 845.737L489.891 816.584C523.359 625.495 317.643 483.39 117.49 559.336L47.6414 585.837C-96.4976 640.523 -250.31 554.267 -254.595 416.349L-255.778 416.437C-251.467 555.079 -96.8435 641.786 48.0477 586.813L117.896 560.312ZM475.559 831.536C508.885 641.257 304.039 499.752 104.729 575.375L34.8808 601.875C-110.01 656.849 -264.634 570.142 -268.945 431.5L-267.761 431.417C-263.476 569.335 -109.665 655.586 34.4744 600.899L104.323 574.399C304.477 498.458 510.194 640.563 476.724 831.647L471.618 860.802C436.156 1063.27 653.191 1214.39 865.833 1135.3L895.261 1124.35L895.662 1125.33L866.234 1136.28C652.747 1215.69 434.849 1063.96 470.452 860.691L475.559 831.536ZM91.5622 590.437C290.872 514.82 495.72 656.324 462.392 846.6L457.285 875.755C421.682 1079.02 639.58 1230.75 853.067 1151.34L882.495 1140.4L882.094 1139.42L852.666 1150.36C640.024 1229.46 422.989 1078.33 458.451 875.866L463.557 846.712C497.026 655.626 291.31 513.521 91.1558 589.461L21.3086 615.967C-122.83 670.654 -276.643 584.397 -280.928 446.479L-282.11 446.568C-277.8 585.209 -123.176 671.917 21.715 616.943L91.5622 590.437ZM449.225 861.665C482.552 671.387 277.705 529.883 78.3964 605.505L8.54812 632.006C-136.343 686.979 -290.967 600.272 -295.277 461.63L-294.094 461.547C-289.81 599.46 -135.997 685.716 8.14171 631.03L77.9901 604.529C278.143 528.583 483.859 670.688 450.391 861.776L445.284 890.931C409.822 1093.4 626.858 1244.52 839.5 1165.43L868.928 1154.48L869.329 1155.46L839.901 1166.41C626.413 1245.81 408.516 1094.09 444.119 890.82L449.225 861.665ZM65.2295 620.568C264.54 544.95 469.385 686.45 436.059 876.73L430.952 905.885C395.349 1109.15 613.247 1260.88 826.734 1181.47L856.162 1170.53L855.761 1169.55L826.333 1180.49C613.691 1259.58 396.656 1108.46 432.118 905.996L437.224 876.841C470.693 685.756 264.977 543.651 64.8231 619.592L-5.02515 646.092C-149.163 700.784 -302.976 614.528 -307.261 476.61L-308.443 476.698C-304.133 615.34 -149.509 702.047 -4.61882 647.068L65.2295 620.568ZM422.892 891.795C456.219 701.517 251.373 560.013 52.0637 635.635L-17.7846 662.136C-162.676 717.11 -317.3 630.402 -321.61 491.761L-320.428 491.672C-316.143 629.59 -162.33 715.846 -18.1909 661.16L51.6563 634.654C251.81 558.714 457.527 700.818 424.057 891.906L418.951 921.06C383.489 1123.53 600.524 1274.65 813.167 1195.56L842.595 1184.61L842.995 1185.59L813.567 1196.54C600.08 1275.94 382.182 1124.22 417.786 920.949L422.892 891.795ZM38.8968 650.698C238.206 575.075 443.053 716.58 409.725 906.859L404.619 936.014C369.016 1139.28 586.913 1291.01 800.401 1211.6L829.829 1200.66L829.428 1199.68L800 1210.62C587.358 1289.71 370.323 1138.59 405.785 936.125L410.891 906.97C444.361 715.886 238.644 573.781 38.4904 649.722L-31.3637 676.224C-175.497 730.909 -329.308 644.658 -333.593 506.74L-334.777 506.823C-330.466 645.465 -175.843 732.172 -30.9514 677.198L38.8968 650.698ZM396.558 921.924C429.886 731.648 225.039 590.143 25.7299 665.76L-44.1173 692.266C-189.008 747.24 -343.632 660.533 -347.943 521.891L-346.76 521.802C-342.475 659.72 -188.663 745.977 -44.5294 691.291L25.3235 664.784C225.477 588.844 431.193 730.949 397.725 922.035L392.618 951.19C357.156 1153.65 574.191 1304.78 786.833 1225.69L816.261 1214.74L816.662 1215.72L787.234 1226.67C573.746 1306.07 355.849 1154.35 391.452 951.079L396.558 921.924Z" fill="#FF9636"/>
</mask>
<g mask="url(#mask2)">
<path d="M934.329 -6.55409L1067.53 1420.49L191.964 1409.79L-98.4171 401.464L934.329 -6.55409Z" fill="url(#paint2_linear)"/>
</g>
</g>
<rect y="454" width="1440" height="490" fill="url(#paint3_linear)"/>
</g>
<defs>
<linearGradient id="paint0_linear" x1="-141.5" y1="-123.5" x2="1737.41" y2="493.205" gradientUnits="userSpaceOnUse">
<stop stop-color="#A3CDF4"/>
<stop offset="0.505208" stop-color="#DF9FF5"/>
<stop offset="1" stop-color="#EFA1E3"/>
</linearGradient>
<linearGradient id="paint1_linear" x1="1571.49" y1="368.93" x2="816.381" y2="-66.8637" gradientUnits="userSpaceOnUse">
<stop stop-color="#48ABBD" stop-opacity="0.6"/>
<stop offset="0.369792" stop-color="#47034D" stop-opacity="0.68"/>
<stop offset="0.682292" stop-color="#921495" stop-opacity="0.33"/>
<stop offset="1" stop-color="#680C0C" stop-opacity="0.13"/>
</linearGradient>
<linearGradient id="paint2_linear" x1="862.925" y1="1237.31" x2="-21.3288" y2="584.772" gradientUnits="userSpaceOnUse">
<stop stop-color="#2EA8BF" stop-opacity="0.44"/>
<stop offset="0.369792" stop-color="#183670"/>
<stop offset="0.682292" stop-color="#1400FF" stop-opacity="0.59"/>
<stop offset="1" stop-color="#541410" stop-opacity="0.13"/>
</linearGradient>
<linearGradient id="paint3_linear" x1="645.5" y1="454" x2="645.5" y2="944" gradientUnits="userSpaceOnUse">
<stop stop-color="white" stop-opacity="0"/>
<stop offset="1" stop-color="white"/>
</linearGradient>
<clipPath id="clip0">
<rect width="836.828" height="934.138" fill="white" transform="translate(1606.52 463.662) rotate(171.01)"/>
</clipPath>
<clipPath id="clip1">
<rect width="1053.32" height="1189.46" fill="white" transform="matrix(-0.254767 -0.967003 -0.967003 0.254767 993.563 1228.56)"/>
</clipPath>
</defs>
</svg>
