<svg id="Layer_1" data-name="Layer 1" xmlns="http://www.w3.org/2000/svg" viewBox="0 0 288 216"><defs><style>.cls-1{fill:#edebf2;}.cls-2{fill:#183b5d;}.cls-3{fill:#7f277c;}</style></defs><rect class="cls-1" width="288" height="216"/><path class="cls-2" d="M62.57,86.78c-5.84-2.06-10.73-.76-14.73,3.83V81.3c0-2.6-1.3-4-3.9-4H40v36.44c0,2.45,1.22,3.71,3.77,3.71h4.1l-.08-.06.08,0v-16c0-4.77,2-8.67,6.66-8.67C59,92.78,61,96.2,61,101.45v16h7.79V99.35q.36-10.17-6.19-12.57"/><path class="cls-2" d="M108.53,77.34h-4.08v36.32c-.06,2.54,1.18,3.83,3.78,3.83h4.07l-.1-.07.1,0V81.17a3.82,3.82,0,0,0-1.11-2.69,3.91,3.91,0,0,0-2.66-1.15"/><path class="cls-2" d="M122,77.34h-4.07v36.32c-.06,2.54,1.17,3.83,3.77,3.83h4.07l-.16-.12.16.1V81.17a3.86,3.86,0,0,0-1.1-2.69A4,4,0,0,0,122,77.33"/><path class="cls-2" d="M144.1,85.78c-9.43,0-14.16,5.37-14.16,16.22s4.72,16.17,14.16,16.17,14.22-5.43,14.22-16.17S153.54,85.78,144.1,85.78ZM144,111.15c-4,0-6.07-3.07-6.13-9.15s2.06-9.32,6.19-9.32,6,3,6,9.09S148.06,111.15,144,111.15Z"/><path class="cls-2" d="M86.82,85.78c-9.5.06-14.28,5.37-14.28,16s4.72,16.11,14.16,16.39c7.67,0,11.92-3.65,13.63-10.26H94.55a3.42,3.42,0,0,0-1.45.26,3.57,3.57,0,0,0-1.21.86,7.28,7.28,0,0,1-5.07,2.24c-3.73,0-5.77-2.29-6.16-6.8A30.25,30.25,0,0,1,80.84,98c.66-3.85,2.64-5.83,5.88-5.83S92,94.31,92.5,98.43H83.35V104H100.8q.89-18.32-14-18.29"/><path class="cls-3" d="M170,81.17v36.29H162.1V77.34h4.07A3.86,3.86,0,0,1,170,81.17Z"/><path class="cls-3" d="M179.62,77.34c2.6,0,3.84,1.3,3.78,3.84v2.3h-7.85V77.34Zm0,8.91c2.54,0,3.78,1.24,3.78,3.78v27.44h-7.85V86.25Z"/><path class="cls-3" d="M217.56,86.25l-11,31.22h-8.32l-11-31.22h8.68l6.31,21.89L207.64,89a3.72,3.72,0,0,1,3.84-2.78Z"/><path class="cls-3" d="M233.37,85.78c-9.5.06-14.28,5.37-14.28,16s4.72,16.11,14.16,16.39c7.67,0,11.92-3.65,13.63-10.26H241.1a3.4,3.4,0,0,0-1.45.26,3.57,3.57,0,0,0-1.21.86,7.25,7.25,0,0,1-5.07,2.24c-3.73,0-5.77-2.29-6.16-6.8a30.92,30.92,0,0,1,.17-6.45c.67-3.85,2.65-5.83,5.89-5.83s5.31,2.13,5.79,6.25h-9.14V104h17.45q.88-18.32-14-18.29"/><path class="cls-2" d="M227,128.45c-.16,0-.17.21-.17.27v7.69h1c.15,0,.17-.22.17-.28v-3a.09.09,0,0,1,0-.06l.06,0h1.35c.15,0,.17-.18.18-.25v-1h-1.54a.09.09,0,0,1-.06,0,.12.12,0,0,1,0-.08v-1.94a.12.12,0,0,1,0-.08.16.16,0,0,1,.09,0H230c.24,0,.23-.33.23-.33v-.87Z"/><path class="cls-2" d="M231.27,128.45c-.16,0-.17.21-.17.27v7.69h1c.16,0,.18-.22.18-.28v-3a.09.09,0,0,1,0-.06l.06,0h1.35c.15,0,.17-.18.17-.25v-1h-1.53s0,0-.06,0a.24.24,0,0,1,0-.08v-1.94a.12.12,0,0,1,0-.08.16.16,0,0,1,.09,0h1.85c.25,0,.24-.33.24-.33v-.87Z"/><path class="cls-2" d="M215.44,131.39l-3.16-2.59c.06-.09,3.17-3.2,3.25-3.26a2.3,2.3,0,0,1,1.13-.37h4a2.26,2.26,0,0,1,1.13.37L216,131.33a.38.38,0,0,1-.26.14.4.4,0,0,1-.28-.08Z"/><path class="cls-2" d="M219.18,128.72l2.59-3.16c.09.06,3.2,3.16,3.26,3.25a2.26,2.26,0,0,1,.37,1.12v4a2.23,2.23,0,0,1-.37,1.12l-5.8-5.8a.38.38,0,0,1-.14-.26.37.37,0,0,1,.09-.28Z"/><path class="cls-2" d="M221.87,132.45,225,135c-.06.09-3.17,3.2-3.26,3.26a2.34,2.34,0,0,1-1.12.38h-4a2.34,2.34,0,0,1-1.12-.38l5.8-5.79a.38.38,0,0,1,.26-.14.4.4,0,0,1,.28.08Z"/><path class="cls-2" d="M218.12,135.13l-2.59,3.16c-.09-.06-3.2-3.17-3.26-3.26a2.23,2.23,0,0,1-.37-1.12v-4a2.23,2.23,0,0,1,.37-1.12l5.8,5.79a.43.43,0,0,1,.13.27A.4.4,0,0,1,218.12,135.13Z"/><path class="cls-2" d="M209.42,136.21l1.41-7.76h-1a.27.27,0,0,0-.15.05.2.2,0,0,0-.09.13l-.92,6,0,0h-.06l0,0-.92-6a.23.23,0,0,0-.1-.12.23.23,0,0,0-.14,0h-1.05l1.43,7.95h1.45a.3.3,0,0,0,.15-.07.29.29,0,0,0,.08-.14Z"/><path class="cls-2" d="M236.46,128.45h-1v7.79c0,.15.2.17.2.17h1v-7.79C236.66,128.47,236.46,128.45,236.46,128.45Z"/><path class="cls-2" d="M240.35,131.17h1.05v-.91a2,2,0,0,0-.14-.73,1.95,1.95,0,0,0-1-1,2,2,0,0,0-.73-.14,1.91,1.91,0,0,0-1.9,1.9v4.34a1.9,1.9,0,0,0,1.17,1.76,1.94,1.94,0,0,0,1.09.11,2,2,0,0,0,1-.52,1.79,1.79,0,0,0,.42-.62,1.83,1.83,0,0,0,.14-.73v-.93c0-.15-.2-.17-.2-.17h-1v1.09a.49.49,0,0,1-.05.27.51.51,0,0,1-.15.23.57.57,0,0,1-.23.15.63.63,0,0,1-.27.06.66.66,0,0,1-.27-.06.54.54,0,0,1-.22-.15.73.73,0,0,1-.16-.23.61.61,0,0,1,0-.27v-4.35a.61.61,0,0,1,.11-.39.67.67,0,0,1,.3-.25.7.7,0,0,1,.4,0,.72.72,0,0,1,.36.2.54.54,0,0,1,.15.22.52.52,0,0,1,0,.27V131C240.16,131.15,240.35,131.17,240.35,131.17Z"/><path class="cls-2" d="M245.63,129.65a.16.16,0,0,0,.16-.16v-1h-3.24c-.15,0-.17.2-.17.2v7.56s0,.2.17.2h3.24v-1c0-.11-.11-.15-.16-.16h-2V133H245a.18.18,0,0,0,.18-.16v-1h-1.62v-2.17Z"/><path class="cls-2" d="M246.85,129.58v-1h-.21v-.12h.55v.12H247v1Z"/><path class="cls-2" d="M247.73,129.58h-.12l-.19-.91v.91h-.11v-1.14h.17l.19.91.19-.91H248v1.14h-.12v-.92Z"/><path class="cls-2" d="M173,132.75h-1l-.26,1.44h-.83l.64-3.62a.53.53,0,0,1,.49-.43h1.38c.86,0,1.22.45,1.07,1.3a1.42,1.42,0,0,1-.47.95A1.48,1.48,0,0,1,173,132.75Zm-.08-.74a.57.57,0,0,0,.26,0,1,1,0,0,0,.23-.12.74.74,0,0,0,.16-.2.57.57,0,0,0,.08-.25c.07-.39-.1-.59-.5-.59h-.84l-.21,1.17Z"/><path class="cls-2" d="M177.5,132.63c-.2,1.08-.77,1.63-1.73,1.63s-1.33-.55-1.14-1.63.77-1.64,1.72-1.64S177.69,131.53,177.5,132.63Zm-2.06,0c-.11.61.05.92.45.92s.66-.32.78-.94,0-.92-.44-.92S175.55,132,175.44,132.63Z"/><path class="cls-2" d="M182.35,131l-1.42,3.15h-.81l-.08-2.26-.9,2.26h-.83L178,131h.8l.12,2.19.84-2.19h.84l0,2.19.77-1.9a.46.46,0,0,1,.17-.22.41.41,0,0,1,.26-.07Z"/><path class="cls-2" d="M183.42,134.26c-.95,0-1.33-.58-1.14-1.65A1.67,1.67,0,0,1,184,131c1,0,1.36.61,1.08,1.85h-2c-.06.5.1.72.49.72a.84.84,0,0,0,.55-.22.46.46,0,0,1,.29-.11H185a1.6,1.6,0,0,1-.61.77,1.54,1.54,0,0,1-1,.26Zm-.25-2h1.18c0-.42-.13-.64-.47-.64s-.56.19-.69.63Z"/><path class="cls-2" d="M185.53,132.56a1.72,1.72,0,0,1,1.89-1.52h.11l-.14.82h-.27a.68.68,0,0,0-.28,0,.82.82,0,0,0-.26.14.76.76,0,0,0-.17.23.68.68,0,0,0-.07.28l-.29,1.64h-.8Z"/><path class="cls-2" d="M188.74,134.26c-1,0-1.32-.58-1.14-1.65a1.67,1.67,0,0,1,1.73-1.62c1,0,1.36.61,1.09,1.85h-2c0,.5.11.72.5.72a.84.84,0,0,0,.55-.22.44.44,0,0,1,.29-.11h.59a1.56,1.56,0,0,1-.62.77A1.52,1.52,0,0,1,188.74,134.26Zm-.25-2h1.19c0-.42-.14-.64-.5-.64s-.56.19-.69.63Z"/><path class="cls-2" d="M194.1,130.53l-.4,2.29a1.6,1.6,0,0,1-.57,1.08,1.57,1.57,0,0,1-.54.29,1.62,1.62,0,0,1-.62.05c-1,0-1.37-.55-1.18-1.6s.7-1.62,1.54-1.65a.77.77,0,0,1,.49.11.87.87,0,0,1,.33.38l.24-1.34h.39a.35.35,0,0,1,.14,0,.31.31,0,0,1,.11.09.29.29,0,0,1,.07.27Zm-2.48,2.08c-.12.63,0,.95.49.95s.74-.32.85-.95-.08-.91-.49-.91-.73.3-.86.91Z"/><path class="cls-2" d="M197.87,131.48a1.2,1.2,0,0,1,.44-.37,1.18,1.18,0,0,1,.56-.13c.83,0,1.16.58,1,1.66a1.67,1.67,0,0,1-1.75,1.6c-1,0-1.4-.47-1.23-1.42l.47-2.69h.4c.26,0,.37.14.32.4Zm-.19,1.13c-.12.63,0,.95.49.95s.74-.32.85-.95-.08-.91-.49-.91-.71.3-.85.91Z"/><path class="cls-2" d="M200.23,134.75c.44,0,.63-.21.58-.63L200.3,131h.9l.24,2.19.85-1.9a.41.41,0,0,1,.17-.2.39.39,0,0,1,.26-.07h.56l-1.89,3.69a1.1,1.1,0,0,1-1.16.7.93.93,0,0,1-.33,0l.12-.65Z"/></svg>