<svg id="Layer_1" data-name="Layer 1" xmlns="http://www.w3.org/2000/svg" xmlns:xlink="http://www.w3.org/1999/xlink" viewBox="0 0 288 216"><defs><style>.cls-1{fill:#edebf2;}.cls-2{fill:url(#linear-gradient);}.cls-3{fill:url(#linear-gradient-2);}</style><linearGradient id="linear-gradient" x1="37.93" y1="108.01" x2="249.83" y2="108.01" gradientUnits="userSpaceOnUse"><stop offset="0.03" stop-color="#5db75b"/><stop offset="0.32" stop-color="#55b658"/><stop offset="0.78" stop-color="#3fb450"/><stop offset="1" stop-color="#32b24b"/></linearGradient><linearGradient id="linear-gradient-2" x1="239.26" y1="133.61" x2="211.69" y2="109.77" gradientUnits="userSpaceOnUse"><stop offset="0" stop-color="#5db75b"/><stop offset="0.11" stop-color="#4bb357"/><stop offset="0.3" stop-color="#33af52"/><stop offset="0.51" stop-color="#22ac4f"/><stop offset="0.73" stop-color="#18aa4d"/><stop offset="1" stop-color="#15a94c"/></linearGradient></defs><rect class="cls-1" width="288" height="216"/><path d="M173.89,102.34h2.19v2.84h-2.19Z"/><path d="M186.05,105.58a8.11,8.11,0,0,1-3.41-.72,8.77,8.77,0,0,1-4.57-4.71,9,9,0,0,1-.65-3.41v-.06a9,9,0,0,1,.65-3.4,9.15,9.15,0,0,1,1.82-2.83,8.58,8.58,0,0,1,2.75-2,8.26,8.26,0,0,1,3.41-.71,8.78,8.78,0,0,1,2.19.25,7.58,7.58,0,0,1,1.81.71,8.87,8.87,0,0,1,1.52,1,16.2,16.2,0,0,1,1.28,1.2l-1.16,1.2a13.53,13.53,0,0,0-2.44-2,5.93,5.93,0,0,0-3.23-.84,6.55,6.55,0,0,0-2.73.58,6.45,6.45,0,0,0-2.15,1.53,7.46,7.46,0,0,0-2,5.17v.06a7.63,7.63,0,0,0,.54,2.87,7.91,7.91,0,0,0,1.51,2.34,6.92,6.92,0,0,0,2.22,1.56,6.69,6.69,0,0,0,2.73.55,6.32,6.32,0,0,0,3.21-.8,10.18,10.18,0,0,0,2.49-2l1.13,1a12,12,0,0,1-2.95,2.42A7.8,7.8,0,0,1,186.05,105.58Z"/><path d="M201.82,105.58a8.32,8.32,0,0,1-3.49-.72,8.8,8.8,0,0,1-4.56-4.71,8.85,8.85,0,0,1-.65-3.41v-.06a8.8,8.8,0,0,1,.65-3.4,9,9,0,0,1,1.83-2.83,8.75,8.75,0,0,1,2.79-2,8.93,8.93,0,0,1,7,0,9.22,9.22,0,0,1,2.75,1.93,8.67,8.67,0,0,1,1.81,2.79,8.85,8.85,0,0,1,.65,3.41v.06a8.87,8.87,0,0,1-.65,3.4,9.18,9.18,0,0,1-1.83,2.83,8.63,8.63,0,0,1-2.78,2A8.46,8.46,0,0,1,201.82,105.58Zm.06-1.58a6.77,6.77,0,0,0,5-2.13,7,7,0,0,0,1.44-2.31,7.56,7.56,0,0,0,.52-2.82v-.06a7.4,7.4,0,0,0-.54-2.87,6.94,6.94,0,0,0-1.49-2.34,6.62,6.62,0,0,0-2.24-1.55,6.9,6.9,0,0,0-7.77,1.56,7,7,0,0,0-1.43,2.31,7.46,7.46,0,0,0-.53,2.83v.06a7.63,7.63,0,0,0,.54,2.87,7.14,7.14,0,0,0,1.49,2.34,6.79,6.79,0,0,0,2.24,1.56A6.91,6.91,0,0,0,201.88,104Z"/><path d="M211.91,102.34h2.21v2.84h-2.21Z"/><path d="M216.65,81.52h2v2.22h-2Zm.2,6.66h1.63v17h-1.63Z"/><path d="M228.75,105.58a8.11,8.11,0,0,1-3-.59,8.39,8.39,0,0,1-2.66-1.74,8.81,8.81,0,0,1-1.89-2.78,9.47,9.47,0,0,1-.71-3.73v-.06a9.33,9.33,0,0,1,.71-3.71,9,9,0,0,1,1.89-2.81,8.48,8.48,0,0,1,2.66-1.77,8,8,0,0,1,5.34-.28A7.64,7.64,0,0,1,233,89a9.21,9.21,0,0,1,1.54,1.3,11.44,11.44,0,0,1,1.21,1.53v-11h1.64v24.33h-1.64v-3.8a13.53,13.53,0,0,1-1.25,1.6,8.45,8.45,0,0,1-1.53,1.33,7.26,7.26,0,0,1-1.9.91A7.08,7.08,0,0,1,228.75,105.58Zm.14-1.58a6.41,6.41,0,0,0,2.59-.52,7.18,7.18,0,0,0,2.23-1.5,7.38,7.38,0,0,0,1.55-2.31,7.22,7.22,0,0,0,.58-3v-.07a7.45,7.45,0,0,0-.58-3,7.18,7.18,0,0,0-1.55-2.29,7,7,0,0,0-2.23-1.49,6.43,6.43,0,0,0-2.59-.54,6.72,6.72,0,0,0-2.62.51,6.16,6.16,0,0,0-2.12,1.43,6.74,6.74,0,0,0-1.42,2.28,8.43,8.43,0,0,0-.52,3.06v.06a8.26,8.26,0,0,0,.54,3A7.15,7.15,0,0,0,224.2,102a6.51,6.51,0,0,0,2.13,1.47A6.63,6.63,0,0,0,228.89,104Z"/><path d="M51.92,132V84h11.8v48Z"/><path d="M70.6,132v-9.18L89,94.51H71.41V84h31.78v9.18L84.7,121.5h18.49V132Z"/><path d="M110.07,132V84h11.8v48Z"/><path d="M158.78,132l-15.39-24.15V132H131.58V84h10.33l15.38,24.16V84h11.8v48Z"/><path class="cls-2" d="M244.5,76.32v33l-30.38,30.38H43.25V76.32H244.5M249.83,71H37.93v74h178.4l33.5-33.5V71Z"/><polygon class="cls-3" points="216.33 111.51 216.33 145.01 249.83 111.51 216.33 111.51"/></svg>