<?xml version="1.0" encoding="UTF-8" standalone="no"?>
<!DOCTYPE svg PUBLIC "-//W3C//DTD SVG 1.1//EN" "http://www.w3.org/Graphics/SVG/1.1/DTD/svg11.dtd">
<svg version="1.1" xmlns="http://www.w3.org/2000/svg" xmlns:xlink="http://www.w3.org/1999/xlink" preserveAspectRatio="xMidYMid meet" viewBox="0 0 614 200" width="614" height="200"><defs><path d="M316.86 24L279.15 24C266.05 24 258.77 24 257.31 24C265.37 24 272.31 25.05 278.04 27.04C291.21 31.61 297.98 41.16 297.23 54.36C296.99 58.5 296.05 62.98 294.29 67.8C288.19 84.56 275.64 97.17 259.11 104.3C259.86 106.69 263.65 118.64 270.45 140.14L270.89 140.14L274.59 140.14L310.04 140.14L341.26 54.36L375.28 54.36L386.33 24L316.86 24Z" id="bRMZYsa20"></path><path d="M109.52 85.88L94.21 24L62.02 24L19.75 140.14L55.42 140.14L74.02 89.04L84.45 129.69L101.71 129.69L142.38 87.21L123.45 140.14L159.12 140.14L201.39 24L168.88 24L109.52 85.88Z" id="d3imnZx59Y"></path><path d="M208.91 110.94L198.28 140.14L228.64 140.14L219.53 110.94L208.91 110.94Z" id="d43Qc6hJnA"></path><path d="M254.81 67.8C257.89 59.34 254.62 54.19 243.83 54.19C242.88 54.19 238.12 54.19 229.56 54.19L219.66 81.41C228.22 81.41 232.98 81.41 233.93 81.41C244.71 81.41 251.73 76.26 254.81 67.8" id="a6rU68QICS"></path><path d="M355.08 90.93C358.27 90.93 360.04 90.93 360.39 90.93C362.46 90.93 363.8 89.88 363.8 88.25C363.8 86.76 362.46 85.81 360.39 85.81C360.04 85.81 358.27 85.81 355.08 85.81L355.08 90.93ZM355.08 78.43C358.27 78.43 360.04 78.43 360.39 78.43C361.93 78.43 362.93 77.47 362.93 75.99C362.93 74.55 361.93 73.64 360.39 73.64C360.04 73.64 358.27 73.64 355.08 73.64L355.08 78.43ZM361.02 65.5C369.11 65.5 374.33 68.85 374.33 73.98C374.33 77.28 372.13 80.11 368.68 81.16C372.71 82.07 375.33 85.42 375.33 89.64C375.33 95.39 370.02 99.07 361.83 99.07C360.65 99.07 354.71 99.07 344.01 99.07L344.01 65.5C353.08 65.5 358.75 65.5 361.02 65.5Z" id="cdoqlGc5V"></path><path d="M410.42 84.85C410.42 93.76 404.15 99.55 394.42 99.55C384.66 99.55 378.19 93.76 378.19 84.85C378.19 83.56 378.19 77.11 378.19 65.5L389.3 65.5C389.3 77.11 389.3 83.56 389.3 84.85C389.3 88.16 391.69 90.31 394.47 90.31C397.2 90.31 399.31 88.2 399.31 84.85C399.31 83.56 399.31 77.11 399.31 65.5L410.42 65.5C410.42 75.82 410.42 82.27 410.42 84.85Z" id="b6h1AUqI7"></path><path d="M443.57 68.99C441.16 74.05 439.82 76.86 439.55 77.42C436.15 75.56 430.93 73.5 428 73.5C426.76 73.5 425.94 73.88 425.94 74.89C425.94 79.1 443.33 76.47 443.33 88.63C443.33 96.1 436.77 99.41 429.2 99.41C423.36 99.41 416.85 97.44 412.39 94.05C412.8 93.21 416.1 86.54 416.51 85.71C419.96 88.59 425.9 90.93 429.3 90.93C430.93 90.93 431.98 90.4 431.98 89.21C431.98 84.85 414.6 87.72 414.6 75.94C414.6 69.23 420.24 65.02 428.96 65.02C434.28 65.02 439.79 66.6 443.57 68.99" id="aHGAzXzCe"></path><path d="M446.79 65.5L457.9 65.5L457.9 99.07L446.79 99.07L446.79 65.5Z" id="doeetl2ns"></path><path d="M486.22 99.07L473 81.93L473 99.07L462.89 99.07L462.89 65.5L472.19 65.5L485.46 82.74L485.46 65.5L495.51 65.5L495.51 99.07L486.22 99.07Z" id="d2UEu8zdTL"></path><path d="M511.73 73.93L511.73 78.05L527.45 78.05L527.45 86.48L511.73 86.48L511.73 90.64L529.46 90.64L529.46 99.07L500.62 99.07L500.62 65.5L529.02 65.5L529.02 73.93L511.73 73.93Z" id="b1213cbgsK"></path><path d="M562.53 68.99C560.12 74.05 558.78 76.86 558.51 77.42C555.11 75.56 549.89 73.5 546.97 73.5C545.72 73.5 544.91 73.88 544.91 74.89C544.91 79.1 562.3 76.47 562.3 88.63C562.3 96.1 555.74 99.41 548.16 99.41C542.32 99.41 535.81 97.44 531.35 94.05C531.76 93.21 535.06 86.54 535.47 85.71C538.92 88.59 544.86 90.93 548.26 90.93C549.89 90.93 550.94 90.4 550.94 89.21C550.94 84.85 533.56 87.72 533.56 75.94C533.56 69.23 539.21 65.02 547.92 65.02C553.24 65.02 558.75 66.6 562.53 68.99" id="a9Sz6OoLZV"></path><path d="M594.25 68.99C591.84 74.05 590.5 76.86 590.23 77.42C586.83 75.56 581.61 73.5 578.69 73.5C577.44 73.5 576.63 73.88 576.63 74.89C576.63 79.1 594.01 76.47 594.01 88.63C594.01 96.1 587.45 99.41 579.89 99.41C574.04 99.41 567.52 97.44 563.08 94.05C563.49 93.21 566.78 86.54 567.19 85.71C570.64 88.59 576.58 90.93 579.98 90.93C581.61 90.93 582.66 90.4 582.66 89.21C582.66 84.85 565.28 87.72 565.28 75.94C565.28 69.23 570.92 65.02 579.64 65.02C584.96 65.02 590.47 66.6 594.25 68.99" id="fuUhVr3i"></path><path d="M373.18 111.9C370.77 116.96 369.43 119.77 369.16 120.33C365.76 118.47 360.54 116.41 357.62 116.41C356.37 116.41 355.56 116.79 355.56 117.8C355.56 122.01 372.94 119.37 372.94 131.54C372.94 139.02 366.38 142.32 358.81 142.32C352.97 142.32 346.45 140.36 342 136.95C342.42 136.12 345.71 129.45 346.12 128.62C349.57 131.5 355.51 133.84 358.91 133.84C360.54 133.84 361.59 133.32 361.59 132.12C361.59 127.76 344.21 130.63 344.21 118.85C344.21 112.14 349.85 107.93 358.58 107.93C363.89 107.93 369.4 109.51 373.18 111.9" id="b2XqFnkBHa"></path><path d="M387.45 124.84C389.89 124.84 391.25 124.84 391.52 124.84C393.91 124.84 395.3 123.35 395.3 120.77C395.3 118.27 393.91 116.84 391.52 116.84C391.25 116.84 389.89 116.84 387.45 116.84L387.45 124.84ZM392.09 108.41C400.8 108.41 405.83 112.77 405.83 120.43C405.83 128.58 400.8 133.27 392.09 133.27C391.78 133.27 390.23 133.27 387.45 133.27L387.45 141.98L376.33 141.98L376.33 108.41C384.73 108.41 389.99 108.41 392.09 108.41Z" id="dMRu5Rno0"></path><path d="M422.72 119.47L419.17 129.29L426.17 129.29L422.72 119.47ZM416.31 137.25L414.58 141.98L403.18 141.98L417.36 108.41L428.75 108.41L442.4 141.98L430.58 141.98L428.9 137.25L416.31 137.25Z" id="bnJHTAvB6"></path><path d="M473.13 114.2C469.28 118.77 467.14 121.31 466.72 121.82C464.7 119.09 461.69 117.32 459.1 117.32C455.08 117.32 452.16 120.52 452.16 124.98C452.16 129.48 455.08 132.74 459.1 132.74C461.5 132.74 464.52 131.26 466.72 128.91C467.36 129.59 472.49 135.07 473.13 135.76C469.4 139.83 463.7 142.46 458.53 142.46C448.23 142.46 440.76 135.13 440.76 125.12C440.76 115.26 448.42 108.07 458.96 108.07C464.08 108.07 469.69 110.47 473.13 114.2" id="b2vdAHWemo"></path><path d="M486.44 116.84L486.44 120.96L502.14 120.96L502.14 129.39L486.44 129.39L486.44 133.55L504.15 133.55L504.15 141.98L475.32 141.98L475.32 108.41L503.72 108.41L503.72 116.84L486.44 116.84Z" id="bjEpEEFBE"></path><path d="M346.56 173.74C346.56 172.9 345.99 172.28 345.19 172.28C344.38 172.28 343.81 172.89 343.81 173.74C343.81 174.62 344.38 175.22 345.19 175.22C345.99 175.22 346.56 174.61 346.56 173.74M347.55 173.78C347.55 175.13 346.7 176.05 345.41 176.05C344.68 176.05 344.14 175.76 343.81 175.24C343.81 175.4 343.81 176.21 343.81 177.66L342.83 177.66L342.83 171.5L343.81 171.5C343.81 171.97 343.81 172.23 343.81 172.28C344.14 171.76 344.68 171.47 345.39 171.47C346.67 171.47 347.55 172.4 347.55 173.78" id="i3NaK5G7Ia"></path><path d="M349.35 173.77C349.35 174.64 349.92 175.24 350.74 175.24C351.54 175.24 352.11 174.64 352.11 173.77C352.11 172.9 351.54 172.31 350.74 172.31C349.92 172.31 349.35 172.9 349.35 173.77M353.09 173.76C353.09 175.12 352.13 176.05 350.74 176.05C349.34 176.05 348.38 175.12 348.38 173.76C348.38 172.39 349.34 171.47 350.74 171.47C352.13 171.47 353.09 172.39 353.09 173.76" id="a1jTIvPFV"></path><path d="M358.45 176.02L357.3 172.67L356.15 176.02L355.15 176.02L353.49 171.5L354.49 171.5L355.66 175.05L356.8 171.5L357.81 171.5L358.96 175.05L360.11 171.5L361.1 171.5L359.46 176.02L358.45 176.02Z" id="caQjuqvv"></path><path d="M365.03 173.42C365 172.69 364.52 172.25 363.78 172.25C363.07 172.25 362.56 172.7 362.45 173.42C362.97 173.42 364.52 173.42 365.03 173.42ZM365.88 174.13C363.83 174.13 362.7 174.13 362.47 174.13C362.62 174.83 363.16 175.26 363.87 175.26C364.36 175.26 364.81 175.08 365.14 174.73C365.2 174.79 365.61 175.23 365.66 175.29C365.22 175.77 364.58 176.05 363.79 176.05C362.4 176.05 361.48 175.13 361.48 173.77C361.48 172.4 362.42 171.48 363.77 171.47C365.36 171.47 366 172.5 365.88 174.13" id="dPRLBNdI"></path><path d="M368.03 172.4C368.34 171.79 368.88 171.47 369.59 171.47C369.59 171.56 369.59 172.31 369.59 172.4C368.68 172.35 368.1 172.89 368.03 173.66C368.03 173.82 368.03 174.6 368.03 176.02L367.05 176.02L367.05 171.5L368.03 171.5C368.03 171.98 368.03 172.28 368.03 172.4Z" id="bHRGE5CDG"></path><path d="M373.69 173.42C373.66 172.69 373.18 172.25 372.44 172.25C371.73 172.25 371.22 172.7 371.11 173.42C371.63 173.42 373.18 173.42 373.69 173.42ZM374.54 174.13C372.5 174.13 371.36 174.13 371.13 174.13C371.28 174.83 371.82 175.26 372.53 175.26C373.02 175.26 373.48 175.08 373.8 174.73C373.86 174.79 374.27 175.23 374.33 175.29C373.88 175.77 373.24 176.05 372.45 176.05C371.06 176.05 370.14 175.13 370.14 173.77C370.14 172.4 371.09 171.48 372.43 171.47C374.02 171.47 374.66 172.5 374.54 174.13" id="aXXQcyZzG"></path><path d="M379.11 173.78C379.11 172.9 378.54 172.29 377.73 172.29C376.91 172.29 376.35 172.91 376.34 173.78C376.35 174.63 376.9 175.25 377.73 175.25C378.54 175.25 379.11 174.63 379.11 173.78M380.09 176.02L379.11 176.02C379.11 175.55 379.11 175.3 379.11 175.25C378.79 175.77 378.25 176.06 377.53 176.06C376.23 176.06 375.36 175.12 375.36 173.74C375.36 172.38 376.24 171.46 377.51 171.46C378.24 171.46 378.78 171.76 379.11 172.28C379.11 172.11 379.11 171.26 379.11 169.72L380.09 169.72L380.09 176.02Z" id="bfdxkSM18"></path><path d="M387.55 173.74C387.55 172.9 386.98 172.28 386.17 172.28C385.36 172.28 384.79 172.89 384.79 173.74C384.79 174.62 385.36 175.22 386.17 175.22C386.98 175.22 387.55 174.61 387.55 173.74M388.53 173.78C388.53 175.13 387.68 176.05 386.39 176.05C385.67 176.05 385.13 175.76 384.79 175.24C384.79 175.29 384.79 175.55 384.79 176.02L383.82 176.02L383.82 169.72L384.79 169.72C384.79 171.26 384.79 172.11 384.79 172.28C385.13 171.76 385.67 171.47 386.37 171.47C387.66 171.47 388.53 172.4 388.53 173.78" id="ct3paF4h"></path><path d="M391.41 176.64C391.13 177.35 390.62 177.71 389.94 177.71C389.53 177.71 389.21 177.59 388.9 177.33C388.94 177.25 389.27 176.65 389.31 176.57C389.52 176.72 389.7 176.79 389.9 176.79C390.19 176.79 390.43 176.63 390.58 176.29C390.59 176.27 390.65 176.15 390.74 175.95L388.87 171.5L389.88 171.5L391.23 174.92L392.49 171.5L393.46 171.5C392.37 174.24 391.68 175.95 391.41 176.64Z" id="a1rRqUkrLv"></path><path d="M454.49 162.69C454.06 162.69 454.03 163.27 454.02 163.42C454.02 164.81 454.02 171.73 454.02 184.2C455.69 184.2 456.61 184.2 456.8 184.2C457.23 184.2 457.26 183.62 457.27 183.46C457.27 183.46 457.27 183.45 457.27 183.42C457.27 178.57 457.27 175.88 457.27 175.34C457.27 175.34 457.3 175.13 457.51 175.07C457.88 175.07 460.81 175.07 461.17 175.07C461.56 175.07 461.63 174.59 461.64 174.39C461.64 174.22 461.64 173.36 461.64 171.81C459.15 171.81 457.77 171.81 457.49 171.81C457.4 171.78 457.27 171.71 457.27 171.49C457.27 170.96 457.27 166.76 457.27 166.24C457.27 166.24 457.29 165.95 457.61 165.95C458.11 165.95 462.11 165.95 462.61 165.95C463.27 165.95 463.25 165.06 463.25 165.06C463.25 164.9 463.25 164.11 463.25 162.69C458.58 162.69 455.66 162.69 454.49 162.69Z" id="af1yCLyNK"></path><path d="M465.95 162.69C465.52 162.69 465.48 163.27 465.48 163.42C465.48 164.81 465.48 171.73 465.48 184.2C467.14 184.2 468.07 184.2 468.25 184.2C468.68 184.2 468.72 183.62 468.72 183.46C468.72 183.46 468.72 183.45 468.72 183.42C468.72 178.57 468.72 175.88 468.72 175.34C468.72 175.34 468.76 175.13 468.97 175.07C469.33 175.07 472.26 175.07 472.63 175.07C473.02 175.07 473.08 174.59 473.1 174.39C473.1 174.22 473.1 173.36 473.1 171.81C470.6 171.81 469.22 171.81 468.94 171.81C468.86 171.78 468.72 171.71 468.72 171.49C468.72 170.96 468.72 166.76 468.72 166.24C468.72 166.24 468.75 165.95 469.07 165.95C469.57 165.95 473.57 165.95 474.07 165.95C474.73 165.95 474.7 165.06 474.7 165.06C474.7 164.9 474.7 164.11 474.7 162.69C470.04 162.69 467.12 162.69 465.95 162.69Z" id="b3ifgSuT1"></path><path d="M426.45 153.83C425.51 153.83 424.3 154.26 423.41 154.84C423.41 154.84 423.41 154.84 423.41 154.84C423.17 155 414.78 163.4 414.61 163.64C414.61 163.64 414.61 163.64 414.61 163.64C419.74 167.84 422.58 170.18 423.15 170.65C423.82 171.19 424.46 170.67 424.63 170.5C424.63 170.5 424.63 170.5 424.63 170.5C434.02 161.11 439.24 155.88 440.29 154.84C439.41 154.26 438.19 153.83 437.26 153.83C437.26 153.83 437.26 153.83 437.26 153.83C431.49 153.83 427.89 153.83 426.45 153.83Z" id="i50zkzRg6t"></path><linearGradient id="gradientcZ4rR8ZNO" gradientUnits="userSpaceOnUse" x1="430.91" y1="156.07" x2="417.1" y2="169.31"><stop style="stop-color: #af2165;stop-opacity: 1" offset="0%"></stop><stop style="stop-color: #911e53;stop-opacity: 1" offset="24.7312%"></stop><stop style="stop-color: #781f44;stop-opacity: 1" offset="57.267500000000005%"></stop><stop style="stop-color: #731e41;stop-opacity: 1" offset="100%"></stop></linearGradient><path d="M439.03 170.46C439.03 170.46 439.03 170.46 439.03 170.46C439.03 170.46 439.03 170.46 439.03 170.46Z" id="cOQ52WJaC"></path><linearGradient id="gradientbtxWXcrPU" gradientUnits="userSpaceOnUse" x1="-97.24" y1="-18.67" x2="-97.24" y2="-18.67"><stop style="stop-color: #af2165;stop-opacity: 1" offset="0%"></stop><stop style="stop-color: #911e53;stop-opacity: 1" offset="24.7312%"></stop><stop style="stop-color: #781f44;stop-opacity: 1" offset="57.267500000000005%"></stop><stop style="stop-color: #731e41;stop-opacity: 1" offset="100%"></stop></linearGradient><path d="M433.28 163.42C432.74 164.08 433.27 164.73 433.43 164.89C433.43 164.89 433.43 164.89 433.43 164.89C442.83 174.29 448.05 179.51 449.09 180.56C449.68 179.67 450.1 178.45 450.1 177.52C450.1 177.52 450.1 177.52 450.1 177.52C450.1 171.03 450.1 167.43 450.1 166.71C450.1 165.78 449.68 164.56 449.09 163.68C449.09 163.68 449.09 163.68 449.09 163.68C448.93 163.44 440.53 155.04 440.29 154.88C440.29 154.88 440.29 154.88 440.29 154.88C436.55 159.43 434.22 162.28 433.28 163.42Z" id="l1kwMBOcs7"></path><linearGradient id="gradienta2elZQmkC1" gradientUnits="userSpaceOnUse" x1="447.87" y1="171.17" x2="434.63" y2="157.36"><stop style="stop-color: #af2165;stop-opacity: 1" offset="0%"></stop><stop style="stop-color: #911e53;stop-opacity: 1" offset="24.7312%"></stop><stop style="stop-color: #781f44;stop-opacity: 1" offset="57.267500000000005%"></stop><stop style="stop-color: #731e41;stop-opacity: 1" offset="100%"></stop></linearGradient><path d="M439.07 173.66C429.67 183.05 424.45 188.27 423.41 189.32C424.29 189.9 425.51 190.32 426.44 190.32C426.44 190.32 426.44 190.32 426.44 190.32C432.93 190.32 436.53 190.32 437.25 190.32C438.18 190.32 439.4 189.9 440.28 189.32C440.28 189.32 440.28 189.32 440.28 189.32C440.52 189.16 448.92 180.76 449.08 180.52C449.08 180.52 449.08 180.52 449.08 180.52C443.96 176.32 441.11 173.98 440.54 173.51C440.33 173.33 440.11 173.27 439.92 173.27C439.92 173.27 439.92 173.27 439.92 173.27C439.51 173.27 439.18 173.55 439.07 173.66" id="b15AY7M9"></path><linearGradient id="gradientb1FlLIoByg" gradientUnits="userSpaceOnUse" x1="432.79" y1="188.09" x2="446.6" y2="174.85"><stop style="stop-color: #af2165;stop-opacity: 1" offset="0%"></stop><stop style="stop-color: #911e53;stop-opacity: 1" offset="24.7312%"></stop><stop style="stop-color: #781f44;stop-opacity: 1" offset="57.267500000000005%"></stop><stop style="stop-color: #731e41;stop-opacity: 1" offset="100%"></stop></linearGradient><path d="M413.59 166.64C413.59 173.13 413.59 176.73 413.59 177.45C413.59 178.38 414.01 179.6 414.6 180.48C414.6 180.48 414.6 180.48 414.6 180.48C414.76 180.72 423.16 189.12 423.4 189.28C423.4 189.28 423.4 189.28 423.4 189.28C427.6 184.16 429.94 181.31 430.41 180.74C430.95 180.08 430.42 179.43 430.26 179.27C430.26 179.27 430.26 179.27 430.26 179.27C420.87 169.87 415.65 164.65 414.6 163.6C414.01 164.49 413.59 165.71 413.59 166.64" id="b5q5SuctP"></path><linearGradient id="gradientakkvTSNLU" gradientUnits="userSpaceOnUse" x1="415.83" y1="172.99" x2="429.07" y2="186.8"><stop style="stop-color: #af2165;stop-opacity: 1" offset="0%"></stop><stop style="stop-color: #911e53;stop-opacity: 1" offset="24.7312%"></stop><stop style="stop-color: #781f44;stop-opacity: 1" offset="57.267500000000005%"></stop><stop style="stop-color: #731e41;stop-opacity: 1" offset="100%"></stop></linearGradient><path d="M406.9 183.66L406.9 183.66L410.71 162.71C409.02 162.71 408.08 162.71 407.9 162.71C407.35 162.71 407.23 163.19 407.23 163.19C406.98 164.8 404.99 177.7 404.74 179.31C404.61 179.51 404.47 179.31 404.47 179.31C404.22 177.7 402.22 164.77 401.97 163.16C401.93 163.05 401.78 162.71 401.31 162.71C401.12 162.71 400.19 162.71 398.5 162.71L402.34 184.2C404.69 184.2 406 184.2 406.26 184.2C406.79 184.2 406.9 183.66 406.9 183.66" id="a9IbuLJPi"></path><path d="M479.98 162.71L477.27 162.71C477.27 175.32 477.27 182.33 477.27 183.74C477.27 184.14 477.81 184.2 477.81 184.2C477.99 184.2 478.89 184.2 480.51 184.2C480.51 171.58 480.51 164.57 480.51 163.17C480.51 162.76 479.98 162.71 479.98 162.71" id="b5rnK3b39U"></path><path d="M489.95 169.59C489.95 169.61 489.96 169.62 489.96 169.63C489.95 169.61 489.95 169.61 489.95 169.59" id="c5zppdOVZu"></path><path d="M490.49 170.06L493.31 170.07C493.31 168.59 493.31 167.78 493.31 167.61C493.31 166.2 492.82 164.98 491.82 163.98C490.83 162.97 489.62 162.47 488.19 162.47C486.77 162.47 485.56 162.97 484.55 163.97C483.55 164.97 483.04 166.18 483.04 167.61C483.04 168.78 483.04 178.17 483.04 179.34C483.04 180.76 483.54 181.97 484.55 182.97C485.54 183.97 486.76 184.47 488.19 184.47C489.6 184.47 490.8 183.97 491.81 182.98C492.81 181.98 493.31 180.77 493.31 179.34C493.31 179.09 493.31 177.07 493.31 176.81C493.31 176.41 492.78 176.35 492.78 176.35C492.59 176.35 491.65 176.35 489.96 176.34C489.96 178.12 489.96 179.11 489.96 179.31C489.96 179.82 489.77 180.26 489.41 180.62C489.04 180.98 488.6 181.16 488.09 181.16C487.57 181.16 487.13 180.98 486.77 180.62C486.41 180.26 486.23 179.82 486.23 179.31C486.23 178.13 486.23 168.72 486.23 167.55C486.23 167.03 486.41 166.59 486.77 166.22C487.13 165.86 487.57 165.67 488.09 165.67C488.6 165.67 489.04 165.86 489.41 166.22C489.77 166.59 489.96 167.03 489.96 167.55C489.96 167.75 489.96 169.42 489.96 169.63C489.98 170 490.49 170.06 490.49 170.06" id="crhuONYeJ"></path><path d="M504.73 165.95C504.87 165.92 505.18 165.82 505.2 165.52C505.2 165.33 505.2 164.39 505.2 162.69C499.94 162.69 497.02 162.69 496.43 162.69C496.03 162.69 495.97 163.22 495.97 163.22C495.97 165.27 495.97 181.62 495.97 183.66C495.97 183.66 496.03 184.2 496.43 184.2C497.02 184.2 499.94 184.2 505.2 184.2C505.2 182.5 505.2 181.56 505.2 181.37C505.18 181.07 504.87 180.97 504.73 180.94C504.36 180.94 502.53 180.94 499.22 180.94L499.22 175.07C501.56 175.07 502.86 175.07 503.12 175.07C503.26 175.04 503.57 174.94 503.59 174.64C503.59 174.45 503.59 173.51 503.59 171.81L499.22 171.81L499.22 165.95C502.16 165.95 504 165.95 504.73 165.95Z" id="a15QKPotI"></path><path d="M510.56 165.77L510.23 165.77L509.72 163.31L509.72 165.77L509.42 165.77L509.42 162.69L509.9 162.69L510.4 165.15L510.89 162.69L511.37 162.69L511.37 165.77L511.05 165.77L511.05 163.29L510.56 165.77ZM508.18 165.77L508.18 163L507.62 163L507.62 162.69L509.1 162.69L509.1 163L508.53 163L508.53 165.77L508.18 165.77Z" id="b1vgI4njvv"></path></defs><g><g><g><g><use xlink:href="#bRMZYsa20" opacity="1" fill="#4ebf57" fill-opacity="1"></use><g><use xlink:href="#bRMZYsa20" opacity="1" fill-opacity="0" stroke="#000000" stroke-width="1" stroke-opacity="0"></use></g></g><g><use xlink:href="#d3imnZx59Y" opacity="1" fill="#325eaf" fill-opacity="1"></use><g><use xlink:href="#d3imnZx59Y" opacity="1" fill-opacity="0" stroke="#000000" stroke-width="1" stroke-opacity="0"></use></g></g><g><use xlink:href="#d43Qc6hJnA" opacity="1" fill="#45bb3a" fill-opacity="1"></use><g><use xlink:href="#d43Qc6hJnA" opacity="1" fill-opacity="0" stroke="#000000" stroke-width="1" stroke-opacity="0"></use></g></g><g><use xlink:href="#a6rU68QICS" opacity="1" fill="#45bb3a" fill-opacity="1"></use><g><use xlink:href="#a6rU68QICS" opacity="1" fill-opacity="0" stroke="#000000" stroke-width="1" stroke-opacity="0"></use></g></g><g><use xlink:href="#cdoqlGc5V" opacity="1" fill="#67686f" fill-opacity="1"></use><g><use xlink:href="#cdoqlGc5V" opacity="1" fill-opacity="0" stroke="#000000" stroke-width="1" stroke-opacity="0"></use></g></g><g><use xlink:href="#b6h1AUqI7" opacity="1" fill="#67686f" fill-opacity="1"></use><g><use xlink:href="#b6h1AUqI7" opacity="1" fill-opacity="0" stroke="#000000" stroke-width="1" stroke-opacity="0"></use></g></g><g><use xlink:href="#aHGAzXzCe" opacity="1" fill="#67686f" fill-opacity="1"></use><g><use xlink:href="#aHGAzXzCe" opacity="1" fill-opacity="0" stroke="#000000" stroke-width="1" stroke-opacity="0"></use></g></g><g><use xlink:href="#doeetl2ns" opacity="1" fill="#67686f" fill-opacity="1"></use><g><use xlink:href="#doeetl2ns" opacity="1" fill-opacity="0" stroke="#000000" stroke-width="1" stroke-opacity="0"></use></g></g><g><use xlink:href="#d2UEu8zdTL" opacity="1" fill="#67686f" fill-opacity="1"></use><g><use xlink:href="#d2UEu8zdTL" opacity="1" fill-opacity="0" stroke="#000000" stroke-width="1" stroke-opacity="0"></use></g></g><g><use xlink:href="#b1213cbgsK" opacity="1" fill="#67686f" fill-opacity="1"></use><g><use xlink:href="#b1213cbgsK" opacity="1" fill-opacity="0" stroke="#000000" stroke-width="1" stroke-opacity="0"></use></g></g><g><use xlink:href="#a9Sz6OoLZV" opacity="1" fill="#67686f" fill-opacity="1"></use><g><use xlink:href="#a9Sz6OoLZV" opacity="1" fill-opacity="0" stroke="#000000" stroke-width="1" stroke-opacity="0"></use></g></g><g><use xlink:href="#fuUhVr3i" opacity="1" fill="#67686f" fill-opacity="1"></use><g><use xlink:href="#fuUhVr3i" opacity="1" fill-opacity="0" stroke="#000000" stroke-width="1" stroke-opacity="0"></use></g></g><g><use xlink:href="#b2XqFnkBHa" opacity="1" fill="#67686f" fill-opacity="1"></use><g><use xlink:href="#b2XqFnkBHa" opacity="1" fill-opacity="0" stroke="#000000" stroke-width="1" stroke-opacity="0"></use></g></g><g><use xlink:href="#dMRu5Rno0" opacity="1" fill="#67686f" fill-opacity="1"></use><g><use xlink:href="#dMRu5Rno0" opacity="1" fill-opacity="0" stroke="#000000" stroke-width="1" stroke-opacity="0"></use></g></g><g><use xlink:href="#bnJHTAvB6" opacity="1" fill="#67686f" fill-opacity="1"></use><g><use xlink:href="#bnJHTAvB6" opacity="1" fill-opacity="0" stroke="#000000" stroke-width="1" stroke-opacity="0"></use></g></g><g><use xlink:href="#b2vdAHWemo" opacity="1" fill="#67686f" fill-opacity="1"></use><g><use xlink:href="#b2vdAHWemo" opacity="1" fill-opacity="0" stroke="#000000" stroke-width="1" stroke-opacity="0"></use></g></g><g><use xlink:href="#bjEpEEFBE" opacity="1" fill="#67686f" fill-opacity="1"></use><g><use xlink:href="#bjEpEEFBE" opacity="1" fill-opacity="0" stroke="#000000" stroke-width="1" stroke-opacity="0"></use></g></g><g><use xlink:href="#i3NaK5G7Ia" opacity="1" fill="#67686f" fill-opacity="1"></use><g><use xlink:href="#i3NaK5G7Ia" opacity="1" fill-opacity="0" stroke="#000000" stroke-width="1" stroke-opacity="0"></use></g></g><g><use xlink:href="#a1jTIvPFV" opacity="1" fill="#67686f" fill-opacity="1"></use><g><use xlink:href="#a1jTIvPFV" opacity="1" fill-opacity="0" stroke="#000000" stroke-width="1" stroke-opacity="0"></use></g></g><g><use xlink:href="#caQjuqvv" opacity="1" fill="#67686f" fill-opacity="1"></use><g><use xlink:href="#caQjuqvv" opacity="1" fill-opacity="0" stroke="#000000" stroke-width="1" stroke-opacity="0"></use></g></g><g><use xlink:href="#dPRLBNdI" opacity="1" fill="#67686f" fill-opacity="1"></use><g><use xlink:href="#dPRLBNdI" opacity="1" fill-opacity="0" stroke="#000000" stroke-width="1" stroke-opacity="0"></use></g></g><g><use xlink:href="#bHRGE5CDG" opacity="1" fill="#67686f" fill-opacity="1"></use><g><use xlink:href="#bHRGE5CDG" opacity="1" fill-opacity="0" stroke="#000000" stroke-width="1" stroke-opacity="0"></use></g></g><g><use xlink:href="#aXXQcyZzG" opacity="1" fill="#67686f" fill-opacity="1"></use><g><use xlink:href="#aXXQcyZzG" opacity="1" fill-opacity="0" stroke="#000000" stroke-width="1" stroke-opacity="0"></use></g></g><g><use xlink:href="#bfdxkSM18" opacity="1" fill="#67686f" fill-opacity="1"></use><g><use xlink:href="#bfdxkSM18" opacity="1" fill-opacity="0" stroke="#000000" stroke-width="1" stroke-opacity="0"></use></g></g><g><use xlink:href="#ct3paF4h" opacity="1" fill="#67686f" fill-opacity="1"></use><g><use xlink:href="#ct3paF4h" opacity="1" fill-opacity="0" stroke="#000000" stroke-width="1" stroke-opacity="0"></use></g></g><g><use xlink:href="#a1rRqUkrLv" opacity="1" fill="#67686f" fill-opacity="1"></use><g><use xlink:href="#a1rRqUkrLv" opacity="1" fill-opacity="0" stroke="#000000" stroke-width="1" stroke-opacity="0"></use></g></g><g><use xlink:href="#af1yCLyNK" opacity="1" fill="#656263" fill-opacity="1"></use><g><use xlink:href="#af1yCLyNK" opacity="1" fill-opacity="0" stroke="#000000" stroke-width="1" stroke-opacity="0"></use></g></g><g><use xlink:href="#b3ifgSuT1" opacity="1" fill="#656263" fill-opacity="1"></use><g><use xlink:href="#b3ifgSuT1" opacity="1" fill-opacity="0" stroke="#000000" stroke-width="1" stroke-opacity="0"></use></g></g><g><use xlink:href="#i50zkzRg6t" opacity="1" fill="url(#gradientcZ4rR8ZNO)"></use><g><use xlink:href="#i50zkzRg6t" opacity="1" fill-opacity="0" stroke="#000000" stroke-width="1" stroke-opacity="0"></use></g></g><g><use xlink:href="#cOQ52WJaC" opacity="1" fill="url(#gradientbtxWXcrPU)"></use><g><use xlink:href="#cOQ52WJaC" opacity="1" fill-opacity="0" stroke="#000000" stroke-width="1" stroke-opacity="0"></use></g></g><g><use xlink:href="#l1kwMBOcs7" opacity="1" fill="url(#gradienta2elZQmkC1)"></use><g><use xlink:href="#l1kwMBOcs7" opacity="1" fill-opacity="0" stroke="#000000" stroke-width="1" stroke-opacity="0"></use></g></g><g><use xlink:href="#b15AY7M9" opacity="1" fill="url(#gradientb1FlLIoByg)"></use><g><use xlink:href="#b15AY7M9" opacity="1" fill-opacity="0" stroke="#000000" stroke-width="1" stroke-opacity="0"></use></g></g><g><use xlink:href="#b5q5SuctP" opacity="1" fill="url(#gradientakkvTSNLU)"></use><g><use xlink:href="#b5q5SuctP" opacity="1" fill-opacity="0" stroke="#000000" stroke-width="1" stroke-opacity="0"></use></g></g><g><use xlink:href="#a9IbuLJPi" opacity="1" fill="#656263" fill-opacity="1"></use><g><use xlink:href="#a9IbuLJPi" opacity="1" fill-opacity="0" stroke="#000000" stroke-width="1" stroke-opacity="0"></use></g></g><g><use xlink:href="#b5rnK3b39U" opacity="1" fill="#656263" fill-opacity="1"></use><g><use xlink:href="#b5rnK3b39U" opacity="1" fill-opacity="0" stroke="#000000" stroke-width="1" stroke-opacity="0"></use></g></g><g><use xlink:href="#c5zppdOVZu" opacity="1" fill="#656263" fill-opacity="1"></use><g><use xlink:href="#c5zppdOVZu" opacity="1" fill-opacity="0" stroke="#000000" stroke-width="1" stroke-opacity="0"></use></g></g><g><use xlink:href="#crhuONYeJ" opacity="1" fill="#656263" fill-opacity="1"></use><g><use xlink:href="#crhuONYeJ" opacity="1" fill-opacity="0" stroke="#000000" stroke-width="1" stroke-opacity="0"></use></g></g><g><use xlink:href="#a15QKPotI" opacity="1" fill="#656263" fill-opacity="1"></use><g><use xlink:href="#a15QKPotI" opacity="1" fill-opacity="0" stroke="#000000" stroke-width="1" stroke-opacity="0"></use></g></g><g><use xlink:href="#b1vgI4njvv" opacity="1" fill="#656263" fill-opacity="1"></use><g><use xlink:href="#b1vgI4njvv" opacity="1" fill-opacity="0" stroke="#000000" stroke-width="1" stroke-opacity="0"></use></g></g></g></g></g></svg>