<?xml version="1.0" encoding="utf-8"?>
<!-- Generator: Adobe Illustrator 25.2.3, SVG Export Plug-In . SVG Version: 6.00 Build 0)  -->
<svg version="1.1" id="Layer_1" xmlns="http://www.w3.org/2000/svg" xmlns:xlink="http://www.w3.org/1999/xlink" x="0px" y="0px"
	 viewBox="0 0 512 512" style="enable-background:new 0 0 512 512;" xml:space="preserve">
<style type="text/css">
	.st0{opacity:0.14;fill:#3660AC;}
	.st1{fill:#88D0C8;}
	.st2{fill:#3660AC;}
	.st3{opacity:0.42;fill:url(#SVGID_1_);}
	.st4{opacity:0.46;fill:#E7E7F4;}
	.st5{fill:#F47B5E;}
	.st6{fill:#FFD74B;}
	.st7{fill:#FBB36E;}
	.st8{fill:#F8A181;}
	.st9{fill:#E2E9F6;}
	.st10{fill:#065EA7;}
	.st11{fill:#073D5E;}
	.st12{fill:url(#SVGID_2_);}
	.st13{fill:url(#SVGID_3_);}
	.st14{fill:#55BB68;}
	.st15{fill:#7EC67D;}
	.st16{fill:#0F2446;}
	.st17{fill:#1A3E6E;}
	.st18{fill:#FFFFFF;}
	.st19{fill:none;stroke:#FFFFFF;stroke-miterlimit:10;}
	.st20{fill:#D6DEDB;}
	.st21{opacity:0.42;fill:url(#SVGID_4_);}
	.st22{fill:url(#SVGID_5_);}
	.st23{clip-path:url(#SVGID_8_);}
	.st24{fill:#404B6A;}
	.st25{fill:#8F67AC;}
	.st26{fill:#F3765A;}
	.st27{fill:#F69579;}
	.st28{fill:url(#SVGID_9_);}
	.st29{fill:#C5D5EE;}
	.st30{fill:#ACC5E7;}
	.st31{fill:#D6E4F5;}
	.st32{fill:url(#SVGID_10_);}
	.st33{fill:url(#SVGID_11_);}
	.st34{fill:url(#SVGID_12_);}
	.st35{fill:none;stroke:#0EB7E2;stroke-miterlimit:10;}
	.st36{fill:none;stroke:#6D64AC;stroke-miterlimit:10;}
	.st37{fill:none;stroke:#6D64AC;stroke-linecap:round;stroke-linejoin:round;stroke-miterlimit:10;stroke-dasharray:0,5;}
	.st38{fill:none;stroke:#A8A8D4;stroke-miterlimit:10;}
	.st39{font-family:'Arial-BoldMT';}
	.st40{font-size:12px;}
</style>
<g>
	<path class="st0" d="M469.1,427.6c6.6-36.6,12.8-118.8-37.5-205.4c0,0-27.2-56.6-109.4-41.3c-82.1,15.4-91.1,119.1-131,137
		c-39.9,18-91.7,7-119.7,48.9C56,390,53.4,412.4,54.2,427.6H469.1z"/>
	<g>
		<path class="st1" d="M257,428.1h-2.6c-0.3,0.6-0.4,1-0.4,1L257,428.1z"/>
	</g>
	<g>
		<g>
			<path class="st2" d="M332.7,247.2h-83.5c-3.2,0-6.1-1.8-7.6-4.6l-19.3-37.2c-1.1-2.1,0.4-4.5,2.7-4.5h85.6c3.2,0,6.1,1.8,7.6,4.6
				l18.3,35.3C338.1,243.7,336,247.2,332.7,247.2z"/>
			<linearGradient id="SVGID_1_" gradientUnits="userSpaceOnUse" x1="256.9783" y1="268.142" x2="277.9212" y2="225.1344">
				<stop  offset="0" style="stop-color:#7D7FBD;stop-opacity:0"/>
				<stop  offset="1" style="stop-color:#5F63AD"/>
			</linearGradient>
			<path class="st3" d="M329.2,252.7h-83.5c-3.2,0-6.1-1.8-7.6-4.6l-19.3-37.2c-1.1-2.1,0.4-4.5,2.7-4.5h85.6c3.2,0,6.1,1.8,7.6,4.6
				l18.3,35.3C334.6,249.2,332.5,252.7,329.2,252.7z"/>
			<path class="st4" d="M291.6,230.1h-40.3c-1.5,0-2.9-0.8-3.6-2.2l-9.2-17.8c-0.5-1,0.2-2.1,1.3-2.1h40.9c1.5,0,2.9,0.8,3.6,2.2
				l8.9,17.2C293.9,228.7,293,230.1,291.6,230.1z"/>
			<g>
				<path class="st5" d="M293.4,226.8c0,0-7.3-3.3-8.8-4.3s-6.3-6.7-7.5-7.3c-1.2-0.7-2.8-0.9-3.2-0.8c-0.4,0.1-3.5-0.1-3.9,0
					c-0.4,0.1-4.5-0.5-5.1-0.4c-0.5,0.1-2.4-0.7-2.5,0c-0.1,0.7-0.1,1.1,1.2,1.5c1.3,0.4,5.1,1.1,5.1,1.1s-0.8,0.1-1.5,0.8
					c-0.7,0.7-1.5,1.6-1.5,2.1s0.8,2.3,1.1,3.2s2,2.1,2.7,2.5c0.7,0.4,0.8-0.5,0.5-1.3c-0.3-0.8-0.9-1.6-0.9-1.6s0.5,1.1,1.6,1.9
					c1.1,0.8,3.5,1.6,3.5,1.6l5.3,1.2c0,0,2.5,2.3,4.9,3.9c2.4,1.6,5.5,3.6,5.5,3.6L293.4,226.8z"/>
				<g>
					<g>
						<path class="st6" d="M384.1,201.7c0,0,4.1,2.6,6.6,10.8c2.5,8.2,5,15.3,5.3,17.4c0,2.1-16.3,8.9-22,6.4
							C368.3,233.8,373.3,202.6,384.1,201.7z"/>
						<path class="st7" d="M390,224.9c-1.3-2.9-2.1-9-2.3-11.9c-0.1-1-0.1-1.6-0.1-1.6l-9.2,1.4c-0.9,0.3-2.9,2-5,4
							c-2.3,8.7-2.3,18.1,0.8,19.4c4.2,1.8,14.3-1.4,19.2-4C392.3,229.7,391,227.1,390,224.9z"/>
					</g>
					<g>
						<g>
							<g>
								<g>
									<path class="st5" d="M372,407.4c0,0,1.6,5,0.9,7.5c-0.6,2.5-4.4,4.1-1.9,5c2.5,0.9,9.7-0.6,12.5-2.8c2.2-2.2-1.3-3.4-1.9-5
										c-0.6-1.6-1.3-8.4-1.3-8.4L372,407.4z"/>
								</g>
								<path class="st8" d="M373,412.8c1.8-1,4.1-1.9,4.2,0.7c0.1,2.4-0.7,4.8-2.5,6.6c-1.5,0.2-2.9,0.1-3.7-0.2
									c-2.5-0.9,1.3-2.5,1.9-5C373.1,414.4,373.1,413.6,373,412.8z"/>
								<g>
									<path class="st9" d="M355.7,427.9c0,0-0.7,0.8,0.3,2.2c1,1.3,16.5,1.5,20.1,0.7c3.7-0.8,10.6-3.3,11.6-5.3
										c0.2-2.2-1.8-4.3-1.8-4.3L355.7,427.9z"/>
									<path class="st10" d="M386.6,423.3c-0.9,2-6.4,4.5-10.4,5.6h-20.4c-0.7-0.8-0.9-1.7,0.1-1.9c1.9,0,8.4-2.8,10.3-4.1
										c1.9-1.3,1.9-4.4,4.4-5.3c9.7,1.9,13.1-3.1,13.1-3.1c1.6,2.5,1.3,3.8,1.3,3.8S387.5,421.1,386.6,423.3z"/>
									<path class="st11" d="M376.2,429h-4.6c0.7-0.4,1.3-0.9,1.8-1.5c4-4.5,9.4-5.9,12.4-5.4c0.4,0.1,0.7,0.2,1,0.3
										c0,0.3-0.1,0.6-0.2,0.9C385.7,425.3,380.2,427.8,376.2,429z"/>
								</g>
							</g>
							<g>
								<path class="st10" d="M375.7,290.6c0,0-0.4,15.5-2.7,23.9c-2.2,8.4-3.5,20-2.7,30.2c0.9,10.2,4.4,18.2,4.9,25.7
									c0.4,7.5,7,34.1,6.5,36.8c-0.4,2.2-7.1,3.1-11.1,1.8c-2.2-1.8-15-43-19.4-52.3c-4.4-9.3-2.7-17.3-3.1-22.6
									c-0.4-5.3-2.2-43.9-2.2-43.9S365.9,283.9,375.7,290.6z"/>
								<linearGradient id="SVGID_2_" gradientUnits="userSpaceOnUse" x1="345.9727" y1="349.7826" x2="374.7552" y2="349.7826">
									<stop  offset="0" style="stop-color:#7D7FBD"/>
									<stop  offset="1" style="stop-color:#5F63AD"/>
								</linearGradient>
								<path class="st12" d="M354.4,331.2c1.3,13.3,7.3,12,6,21.3c-1.3,9.3-1.3,11.3,3.3,21.3c4.1,8.8,11.6,26.4,11,35.9
									c-1.4,0-2.8-0.2-4-0.6c-2.2-1.8-15-43-19.4-52.3c-4.4-9.3-2.7-17.3-3.1-22.6c-0.4-5.3-2.2-43.9-2.2-43.9s0.2-0.1,0.6-0.2
									l9.8,6C356.4,295.9,353.1,317.9,354.4,331.2z"/>
							</g>
						</g>
						<g>
							<g>
								<path class="st5" d="M294.7,418.4c0,0,2.7-2,3.7-3.8c1.1-1.9,1.9-8.5,2.7-8.5c0.8,0,9.1,3.2,9.1,3.2l-2.9,4.5l1.1,4.5
									c0,0-3.7,2.9-6.4,2.9C299.2,421.2,294.7,418.4,294.7,418.4z"/>
								<path class="st8" d="M305.3,407.4c-2-0.7-3.9-1.4-4.2-1.4c-0.8,0-1.6,6.7-2.7,8.5c-1.1,1.9-3.7,3.8-3.7,3.8s3.3,2,5.9,2.6
									c0.3-0.4,0.6-0.8,0.8-1.2c1.2-2.8-0.4-6.2,0.5-8C302.6,410.6,304.5,408.4,305.3,407.4z"/>
								<g>
									<g>
										<path class="st9" d="M279.8,428.7c0,0-0.7,0.8,0.3,2.2c1,1.3,16.5,1.5,20.1,0.7c3.7-0.8,10.6-3.3,11.6-5.3
											c0.2-2.2-1.8-4.3-1.8-4.3L279.8,428.7z"/>
										<path class="st10" d="M310.7,424.1c-0.9,2-6.4,4.5-10.4,5.6h-20.4c-0.7-0.8-0.9-1.7,0.1-1.9c1.9,0,8.4-2.8,10.3-4.1
											c1.9-1.3,1.9-4.4,4.4-5.3c9.7,1.9,13.1-3.1,13.1-3.1c1.6,2.5,1.3,3.8,1.3,3.8S311.6,421.9,310.7,424.1z"/>
										<path class="st11" d="M300.2,429.7h-4.6c0.7-0.4,1.3-0.9,1.8-1.5c4-4.5,9.4-5.9,12.4-5.4c0.4,0.1,0.7,0.2,1,0.3
											c0,0.3-0.1,0.6-0.2,0.9C309.8,426.1,304.3,428.6,300.2,429.7z"/>
									</g>
								</g>
							</g>
							<g>
								<path class="st10" d="M325.1,281.3c0,0-5.7,20.3-9.4,34.2c-3.7,13.9-4.3,30.9-8,42.6c-3.7,11.7-6.7,40-7.7,43.7
									c-1.1,3.7-1.1,6.4,2.1,6.9c3.2,0.5,4.3,2.7,8,0.5c3.7-2.1,9.9-21.3,14.7-37.8c4.8-16.5,6.9-21.3,10.7-31.4
									c3.7-10.1,9.6-16.5,14.9-25.6c5.3-9.1,9.6-22.9,9.6-22.9L325.1,281.3z"/>
								<linearGradient id="SVGID_3_" gradientUnits="userSpaceOnUse" x1="299.3953" y1="345.1057" x2="332.4867" y2="345.1057">
									<stop  offset="0" style="stop-color:#7D7FBD"/>
									<stop  offset="1" style="stop-color:#5F63AD"/>
								</linearGradient>
								<path class="st13" d="M325.1,281.3c0,0-5.7,20.3-9.4,34.2c-3.7,13.9-4.3,30.9-8,42.6c-3.7,11.7-6.7,40-7.7,43.7
									c-1.1,3.7-1.1,6.4,2.1,6.9c0.3,0.1,0.6,0.1,0.9,0.2c1.9-6.4,1-8.3,3.6-15.1c3.2-8.5,4.8-20.2,5.3-28.8
									c0.5-8.5,5.9-13.9,8.5-23.4s1.1-12.8,0.5-25c-0.4-10.3,8.6-27.8,11.4-33.1L325.1,281.3z"/>
							</g>
						</g>
						<path class="st8" d="M349,175.3c0,0-2.8,4.7-2.4,6.7c0.4,2,3.6,1.4,3.6,1.4L349,175.3z"/>
						<g>
							<g>
								<path class="st5" d="M350.7,161.6c0,0-2.5,3.6-2.5,7c0,3.4-1.4,20.2,0.9,22.3c2.3,2,11.4-0.2,11.4-0.2s4.3-1.1,6.1-7.5
									c1.8-6.4-3.6-17.5-3.6-17.5L350.7,161.6z"/>
								<path class="st5" d="M356.2,189.8c0,0,1,5.5-2.1,10.5c0,0,10.1-0.8,15.8-0.2c0,0-1.2-9.6-1-12.5
									C369.1,184.7,359.8,186.7,356.2,189.8z"/>
							</g>
							<path class="st8" d="M357.3,178.4c0,0,0.3-4.2,2.2-3.2c2,1.1,1.4,7.6-0.8,8.2C356.6,183.9,357.1,179.3,357.3,178.4z"/>
						</g>
						<path class="st14" d="M372.1,194.4c-4.7-0.6-13.9-1.2-18.9,1.1l-3.8,3.3L376,200l-0.4-2.2C375.3,196,373.9,194.6,372.1,194.4z
							"/>
						<path class="st15" d="M331.6,222.3c0-7,1.9-16,7-20.2c5.2-4.2,17.4-4.2,17.4-4.2l20.6,0.9l7.5,2.8c0,0,5.2,3.8,4.2,11.3
							c0,0-0.7,3.8-5.4,17.8c-4.7,14-4.5,21-6.5,25c-2,4,1.2,14.9,2.5,20.9c1.3,6-1.3,17.3-4.7,21.3c-3.3,4-21.9,8.6-33.9,0.7
							c-12-8-14.6-13.3-15.3-17.3c-0.7-4,9.3-27.4,9.3-36.7C334.4,235.3,331.6,222.3,331.6,222.3z"/>
						
							<image style="overflow:visible;" width="240" height="421" xlink:href="B15D5D97.png"  transform="matrix(0.24 0 0 0.24 324.96 202.08)">
						</image>
					</g>
					<path class="st16" d="M347.3,160.9c0,0-3.3,4.3,3.9,10.7c6.5,6.6,1.3,13.6,6.9,23.2c5.6,9.6,7.7,7.5,7.2,21.3
						c-0.5,13.9,0.3,21.8,10.1,26.6c9.9,4.8,22.9-0.5,25-13.6c2.1-13.1-8.3-21.6-10.1-33c-1.9-11.5,2.9-17.6-2.7-24.5
						c-5.6-6.9-7.7-5.3-10.1-12.3c-2.4-6.9-12.8-8.3-19.4-6.7C351.4,154.3,347.6,159.3,347.3,160.9z"/>
					<path class="st17" d="M362.4,152.1c3.7,0.2,10.2,1.4,12,6.7c2.5,7.5-1.8,9.9,5,14.9s7.8,3.9,6.4,14.2
						c-1.4,10.3-1.1,12.4,3.2,19.2c4.3,6.7,6.7,21,1.1,30.5c-1.4,2.3-3.3,4.6-5.4,6.7c7.4-0.7,14.4-6,15.9-15.2
						c2.1-13.1-8.3-21.6-10.1-33c-1.9-11.5,2.9-17.6-2.7-24.5c-5.6-6.9-7.7-5.3-10.1-12.3C375.6,153.8,368.6,151.8,362.4,152.1z"/>
				</g>
				<path class="st15" d="M340.6,201c0,0-5.3,0.7-9.6,9.9c-4.3,9.2-12.8,23.4-15.6,24.2s-2.5-1.8-12.4-6.7c-9.9-5-12.8-5.7-12.8-5.7
					s-5.3,2.8-5,9.2c0.7,2.8,1.1,3.9,1.1,3.9s12.1,6.4,16.7,10.3c4.6,3.9,11,6,14.9,7.5c3.9,1.4,14.6-9.6,17.4-13.5
					c2.8-3.9,14.6-18.1,15.6-25.6C352,207.1,350.2,199.6,340.6,201z"/>
				<path class="st14" d="M340.9,211.7c-3.9,7.5-7.8,24.2-14.6,30.9c-6.7,6.7-7.8,6.4-9.9,6c-2.1-0.4-6-5-14.6-8.9
					c-8.5-3.9-10.7-4.6-14.9-7.5c-0.6-0.4-1.2-0.8-1.8-1.1c0,0.2,0,0.5,0,0.7c0.7,2.8,1.1,3.9,1.1,3.9s12.1,6.4,16.7,10.3
					c4.6,3.9,11,6,14.9,7.5c3.9,1.4,14.6-9.6,17.4-13.5c2.8-3.9,14.6-18.1,15.6-25.6c0.5-3.8,0.3-7.7-1.3-10.3
					C347.9,204.6,343.9,206,340.9,211.7z"/>
				<path class="st8" d="M284.6,222.6c-1.5-0.9-6.3-6.7-7.5-7.3c-1.2-0.7-2.8-0.9-3.2-0.8c-0.4,0.1-3.5-0.1-3.9,0
					c-0.4,0.1-4.5-0.5-5.1-0.4c-0.5,0.1-2.4-0.7-2.5,0c0,0,3.5,1.2,7.9,1.4c4.4,0.2,5.5,1.8,7.8,3.9c2.3,2.1,2.8,4.4,5,5.5
					c1.1,0.5,2.4-0.3,3.4-1.2C285.7,223.2,285,222.8,284.6,222.6z"/>
			</g>
		</g>
		<path class="st18" d="M302.2,184.8H158c-3.7,0-6.7-3-6.7-6.7v-73.4c0-3.7,3-6.7,6.7-6.7h144.2c3.7,0,6.7,3,6.7,6.7v73.4
			C308.9,181.8,305.9,184.8,302.2,184.8z"/>
		<path class="st19" d="M311.2,192.3H167c-3.7,0-6.7-3-6.7-6.7v-73.4c0-3.7,3-6.7,6.7-6.7h144.2c3.7,0,6.7,3,6.7,6.7v73.4
			C317.9,189.3,314.9,192.3,311.2,192.3z"/>
		<g>
			<g>
				<path class="st20" d="M165.1,134h19.5c0-5.2-2.9-9.6-6.8-11.1c2-1.1,3.4-3.2,3.4-5.6c0-3.5-2.8-6.3-6.3-6.3
					c-3.5,0-6.3,2.8-6.3,6.3c0,2.4,1.4,4.5,3.4,5.6C167.9,124.4,165.1,128.8,165.1,134z"/>
			</g>
			<g>
				<path class="st20" d="M165.1,168.8h19.5c0-5.2-2.9-9.6-6.8-11.1c2-1.1,3.4-3.2,3.4-5.6c0-3.5-2.8-6.3-6.3-6.3
					c-3.5,0-6.3,2.8-6.3,6.3c0,2.4,1.4,4.5,3.4,5.6C167.9,159.2,165.1,163.6,165.1,168.8z"/>
			</g>
			<g>
				<path class="st15" d="M199.5,134H219c0-5.2-2.9-9.6-6.8-11.1c2-1.1,3.4-3.2,3.4-5.6c0-3.5-2.8-6.3-6.3-6.3
					c-3.5,0-6.3,2.8-6.3,6.3c0,2.4,1.4,4.5,3.4,5.6C202.3,124.4,199.5,128.8,199.5,134z"/>
			</g>
			<g>
				<path class="st20" d="M199.5,168.8H219c0-5.2-2.9-9.6-6.8-11.1c2-1.1,3.4-3.2,3.4-5.6c0-3.5-2.8-6.3-6.3-6.3
					c-3.5,0-6.3,2.8-6.3,6.3c0,2.4,1.4,4.5,3.4,5.6C202.3,159.2,199.5,163.6,199.5,168.8z"/>
			</g>
		</g>
		<g>
			<linearGradient id="SVGID_4_" gradientUnits="userSpaceOnUse" x1="241.6832" y1="102.453" x2="375.6953" y2="102.453">
				<stop  offset="0" style="stop-color:#7D7FBD;stop-opacity:0"/>
				<stop  offset="1" style="stop-color:#5F63AD"/>
			</linearGradient>
			<path class="st21" d="M368,124.8H249.4c-4.3,0-7.7-3.5-7.7-7.7V87.9c0-4.3,3.5-7.7,7.7-7.7H368c4.3,0,7.7,3.5,7.7,7.7v29.2
				C375.7,121.3,372.2,124.8,368,124.8z"/>
			<g>
				<linearGradient id="SVGID_5_" gradientUnits="userSpaceOnUse" x1="350.4565" y1="110.6261" x2="358.0011" y2="110.6261">
					<stop  offset="0" style="stop-color:#7D7FBD"/>
					<stop  offset="1" style="stop-color:#5F63AD"/>
				</linearGradient>
				<path class="st22" d="M358,108.2c0-2.1-1.7-3.8-3.8-3.8c-2.1,0-3.8,1.7-3.8,3.8c0,0-0.2,3.4,3.5,8.5c0.1,0.2,0.4,0.2,0.6,0
					C358.2,111.7,358,108.2,358,108.2z M354.2,109.9c-0.9,0-1.7-0.7-1.7-1.7c0-0.9,0.7-1.7,1.7-1.7c0.9,0,1.7,0.7,1.7,1.7
					C355.9,109.1,355.1,109.9,354.2,109.9z"/>
			</g>
			<g>
				<path class="st18" d="M340.9,109.7h-37.1c-1,0-1.7-0.8-1.7-1.7l0,0c0-1,0.8-1.7,1.7-1.7h37.1c1,0,1.7,0.8,1.7,1.7l0,0
					C342.6,108.9,341.8,109.7,340.9,109.7z"/>
				<path class="st18" d="M320.9,115.8h-17.1c-1,0-1.7-0.8-1.7-1.7l0,0c0-1,0.8-1.7,1.7-1.7h17.1c1,0,1.7,0.8,1.7,1.7l0,0
					C322.6,115,321.8,115.8,320.9,115.8z"/>
			</g>
		</g>
		<g>
			<circle class="st4" cx="272.7" cy="103.2" r="16.7"/>
			<g>
				<defs>
					<circle id="SVGID_6_" cx="272.7" cy="103.2" r="16.7"/>
				</defs>
				<linearGradient id="SVGID_7_" gradientUnits="userSpaceOnUse" x1="255.993" y1="103.1637" x2="289.4708" y2="103.1637">
					<stop  offset="0" style="stop-color:#7D7FBD;stop-opacity:0"/>
					<stop  offset="1" style="stop-color:#5F63AD"/>
				</linearGradient>
				<use xlink:href="#SVGID_6_"  style="overflow:visible;opacity:0.42;fill:url(#SVGID_7_);"/>
				<clipPath id="SVGID_8_">
					<use xlink:href="#SVGID_6_"  style="overflow:visible;opacity:0.42;"/>
				</clipPath>
				<g class="st23">
					<g>
						<circle class="st24" cx="272.9" cy="101.9" r="9.4"/>
						<path class="st25" d="M286.2,122.3c-0.4-7.1-6.3-12.8-13.5-12.8c-7.2,0-13.1,5.7-13.5,12.8H286.2z"/>
						<path class="st26" d="M277.1,111.5c0,2.4-2,4.4-4.4,4.4c-2.4,0-4.4-2-4.4-4.4s2-4.4,4.4-4.4
							C275.2,107.1,277.1,109.1,277.1,111.5z"/>
						<g>
							<g>
								<path class="st26" d="M283.5,104.1c0,1.2-0.9,2.1-2.1,2.1c-1.2,0-2.1-0.9-2.1-2.1s0.9-2.1,2.1-2.1
									C282.6,102,283.5,103,283.5,104.1z"/>
							</g>
							<g>
								<path class="st26" d="M265.9,104.1c0,1.2-0.9,2.1-2.1,2.1c-1.2,0-2.1-0.9-2.1-2.1s0.9-2.1,2.1-2.1
									C264.9,102,265.9,103,265.9,104.1z"/>
							</g>
							<path class="st27" d="M281.1,104.1c0,4.6-3.7,8.4-8.4,8.4c-4.6,0-8.4-3.7-8.4-8.4c0-4.6,3.7-8.4,8.4-8.4
								C277.3,95.8,281.1,99.5,281.1,104.1z"/>
						</g>
						<path class="st24" d="M281.6,101.3c-0.9,2.7-4.8,3.9-8.6,2.6c-3.8-1.3-6.1-4.6-5.2-7.3c0.9-2.7,4.8-3.9,8.6-2.6
							C280.2,95.3,282.5,98.5,281.6,101.3z"/>
					</g>
				</g>
			</g>
		</g>
		<g>
			<path class="st15" d="M288.8,165h-47.6c-1.4,0-2.6-1.2-2.6-2.6v-13.5c0-1.4,1.2-2.6,2.6-2.6h47.6c1.4,0,2.6,1.2,2.6,2.6v13.5
				C291.4,163.8,290.3,165,288.8,165z"/>
		</g>
		<g>
			<g>
				<linearGradient id="SVGID_9_" gradientUnits="userSpaceOnUse" x1="139.3135" y1="278.9601" x2="139.3135" y2="219.1281">
					<stop  offset="0" style="stop-color:#D9E2F3"/>
					<stop  offset="9.120494e-02" style="stop-color:#E6EBF7"/>
					<stop  offset="0.2351" style="stop-color:#F3F5FB"/>
					<stop  offset="0.4376" style="stop-color:#FBFCFE"/>
					<stop  offset="1" style="stop-color:#FFFFFF"/>
				</linearGradient>
				<path class="st28" d="M76.7,188.5v65.9c0,3.2,2.6,5.8,5.8,5.8h113.6c3.2,0,5.8-2.6,5.8-5.8v-65.9H76.7z"/>
				<path class="st2" d="M196.1,175.4H82.5c-3.2,0-5.8,2.6-5.8,5.8v11.7h125.2v-11.7C201.9,178,199.3,175.4,196.1,175.4z"/>
			</g>
			<g>
				<g>
					<path class="st29" d="M107,215.9H93.9c-0.6,0-1.1-0.5-1.1-1.1v-13.1c0-0.6,0.5-1.1,1.1-1.1H107c0.6,0,1.1,0.5,1.1,1.1v13.1
						C108,215.4,107.6,215.9,107,215.9z"/>
					<path class="st30" d="M126.4,215.9h-13.1c-0.6,0-1.1-0.5-1.1-1.1v-13.1c0-0.6,0.5-1.1,1.1-1.1h13.1c0.6,0,1.1,0.5,1.1,1.1v13.1
						C127.5,215.4,127,215.9,126.4,215.9z"/>
					<path class="st29" d="M145.9,215.9h-13.1c-0.6,0-1.1-0.5-1.1-1.1v-13.1c0-0.6,0.5-1.1,1.1-1.1h13.1c0.6,0,1.1,0.5,1.1,1.1v13.1
						C146.9,215.4,146.5,215.9,145.9,215.9z"/>
					<path class="st29" d="M165.3,215.9h-13.1c-0.6,0-1.1-0.5-1.1-1.1v-13.1c0-0.6,0.5-1.1,1.1-1.1h13.1c0.6,0,1.1,0.5,1.1,1.1v13.1
						C166.4,215.4,165.9,215.9,165.3,215.9z"/>
					<path class="st29" d="M184.7,215.9h-13.1c-0.6,0-1.1-0.5-1.1-1.1v-13.1c0-0.6,0.5-1.1,1.1-1.1h13.1c0.6,0,1.1,0.5,1.1,1.1v13.1
						C185.8,215.4,185.3,215.9,184.7,215.9z"/>
				</g>
				<g>
					<path class="st29" d="M107,234.3H93.9c-0.6,0-1.1-0.5-1.1-1.1v-13.1c0-0.6,0.5-1.1,1.1-1.1H107c0.6,0,1.1,0.5,1.1,1.1v13.1
						C108,233.8,107.6,234.3,107,234.3z"/>
					<path class="st29" d="M126.4,234.3h-13.1c-0.6,0-1.1-0.5-1.1-1.1v-13.1c0-0.6,0.5-1.1,1.1-1.1h13.1c0.6,0,1.1,0.5,1.1,1.1v13.1
						C127.5,233.8,127,234.3,126.4,234.3z"/>
					<path class="st29" d="M145.9,234.3h-13.1c-0.6,0-1.1-0.5-1.1-1.1v-13.1c0-0.6,0.5-1.1,1.1-1.1h13.1c0.6,0,1.1,0.5,1.1,1.1v13.1
						C146.9,233.8,146.5,234.3,145.9,234.3z"/>
					<path class="st31" d="M165.3,234.3h-13.1c-0.6,0-1.1-0.5-1.1-1.1v-13.1c0-0.6,0.5-1.1,1.1-1.1h13.1c0.6,0,1.1,0.5,1.1,1.1v13.1
						C166.4,233.8,165.9,234.3,165.3,234.3z"/>
					<path class="st31" d="M184.7,234.3h-13.1c-0.6,0-1.1-0.5-1.1-1.1v-13.1c0-0.6,0.5-1.1,1.1-1.1h13.1c0.6,0,1.1,0.5,1.1,1.1v13.1
						C185.8,233.8,185.3,234.3,184.7,234.3z"/>
				</g>
				<g>
					<path class="st30" d="M107,252.8H93.9c-0.6,0-1.1-0.5-1.1-1.1v-13.1c0-0.6,0.5-1.1,1.1-1.1H107c0.6,0,1.1,0.5,1.1,1.1v13.1
						C108,252.3,107.6,252.8,107,252.8z"/>
					<path class="st29" d="M126.4,252.8h-13.1c-0.6,0-1.1-0.5-1.1-1.1v-13.1c0-0.6,0.5-1.1,1.1-1.1h13.1c0.6,0,1.1,0.5,1.1,1.1v13.1
						C127.5,252.3,127,252.8,126.4,252.8z"/>
					<path class="st29" d="M145.9,252.8h-13.1c-0.6,0-1.1-0.5-1.1-1.1v-13.1c0-0.6,0.5-1.1,1.1-1.1h13.1c0.6,0,1.1,0.5,1.1,1.1v13.1
						C146.9,252.3,146.5,252.8,145.9,252.8z"/>
					<path class="st15" d="M165.3,252.8h-13.1c-0.6,0-1.1-0.5-1.1-1.1v-13.1c0-0.6,0.5-1.1,1.1-1.1h13.1c0.6,0,1.1,0.5,1.1,1.1v13.1
						C166.4,252.3,165.9,252.8,165.3,252.8z"/>
					<path class="st29" d="M184.7,252.8h-13.1c-0.6,0-1.1-0.5-1.1-1.1v-13.1c0-0.6,0.5-1.1,1.1-1.1h13.1c0.6,0,1.1,0.5,1.1,1.1v13.1
						C185.8,252.3,185.3,252.8,184.7,252.8z"/>
				</g>
			</g>
		</g>
		<g>
			<path class="st15" d="M225,290h-91.8c-3.2,0-5.8-2.6-5.8-5.8v-21.2c0-3.2,2.6-5.8,5.8-5.8H225c3.2,0,5.8,2.6,5.8,5.8v21.2
				C230.8,287.4,228.2,290,225,290z"/>
			<line class="st18" x1="183.7" y1="264.1" x2="183.7" y2="283"/>
		</g>
		<g>
			<linearGradient id="SVGID_10_" gradientUnits="userSpaceOnUse" x1="312.3247" y1="150.7287" x2="324.2921" y2="173.1675">
				<stop  offset="0" style="stop-color:#7D7FBD"/>
				<stop  offset="1" style="stop-color:#5F63AD"/>
			</linearGradient>
			<circle class="st32" cx="317.7" cy="160.9" r="4.1"/>
			<linearGradient id="SVGID_11_" gradientUnits="userSpaceOnUse" x1="221.7534" y1="80.8065" x2="229.7314" y2="95.7654">
				<stop  offset="0" style="stop-color:#7D7FBD"/>
				<stop  offset="1" style="stop-color:#5F63AD"/>
			</linearGradient>
			<circle class="st33" cx="225.4" cy="87.6" r="2.7"/>
			<linearGradient id="SVGID_12_" gradientUnits="userSpaceOnUse" x1="324.9715" y1="128.6758" x2="332.9495" y2="143.6347">
				<stop  offset="0" style="stop-color:#7D7FBD"/>
				<stop  offset="1" style="stop-color:#5F63AD"/>
			</linearGradient>
			<circle class="st34" cx="328.6" cy="135.4" r="2.7"/>
			<path class="st35" d="M120.4,272.8c0,2.3-1.9,4.2-4.2,4.2c-2.3,0-4.2-1.9-4.2-4.2c0-2.3,1.9-4.2,4.2-4.2
				C118.5,268.6,120.4,270.5,120.4,272.8z"/>
			<path class="st35" d="M215.6,248.9c0,1.5-1.2,2.7-2.7,2.7c-1.5,0-2.7-1.2-2.7-2.7c0-1.5,1.2-2.7,2.7-2.7
				C214.4,246.1,215.6,247.4,215.6,248.9z"/>
			<circle class="st36" cx="379.4" cy="131.7" r="2.7"/>
		</g>
		<line class="st37" x1="102.7" y1="164.6" x2="140.8" y2="164.6"/>
		<polyline class="st37" points="241.1,274.6 255.3,274.6 255.3,259.6 286.7,259.6 		"/>
	</g>
	<g>
		<path class="st14" d="M161.5,428.1c15.2-18.6,16.7-41,16.7-41c-25.6,1.7-45.6,27.2-54.6,41H161.5z"/>
		<path class="st15" d="M138.4,428.1c-4.8-19.5-29.3-104.8-92.8-112.7c0,0,0.9,65.1,42.4,112.7H138.4z"/>
		<path class="st14" d="M103.3,428.1c-11.9-18.1-37.6-50.7-70.6-52.9c0,0,2,28.7,21.4,52.9H103.3z"/>
	</g>
	<g>
		<path class="st15" d="M473.4,375.2c-14.5-27.4-37.7-55.4-72.8-59.8c0,0,0.9,65.1,42.4,112.7h26.2
			C471.5,415.3,473.6,397.1,473.4,375.2z"/>
		<path class="st14" d="M458.3,428.1c-11.9-18.1-37.6-50.7-70.6-52.9c0,0,2,28.7,21.4,52.9H458.3z"/>
	</g>
	<g>
		<path class="st14" d="M195.8,428.1c-7.9-9.7-8.7-21.4-8.7-21.4c13.4,0.9,23.8,14.2,28.5,21.4H195.8z"/>
		<path class="st15" d="M207.9,428.1c2.5-10.2,15.3-54.7,48.5-58.8c0,0-0.5,34-22.1,58.8H207.9z"/>
		<path class="st14" d="M226.2,428.1c6.2-9.5,19.7-26.5,36.9-27.6c0,0-1.1,15-11.2,27.6H226.2z"/>
	</g>
	<circle class="st38" cx="439" cy="261.1" r="33.4"/>
	<circle class="st38" cx="148.8" cy="333.9" r="16.5"/>
	<circle class="st38" cx="288.9" cy="325.4" r="11"/>
</g>
<g>
	<path class="st18" d="M141.3,267.4h-4.7v-1.7H148v1.7h-4.7v13.7h-2V267.4z"/>
	<path class="st18" d="M151.7,265.7v6.4h7.4v-6.4h2v15.4h-2v-7.2h-7.4v7.2h-2v-15.4H151.7z"/>
	<path class="st18" d="M166.6,265.7v9.1c0,3.4,1.5,4.9,3.6,4.9c2.3,0,3.7-1.5,3.7-4.9v-9.1h2v9c0,4.7-2.5,6.7-5.8,6.7
		c-3.1,0-5.5-1.8-5.5-6.6v-9.1H166.6z"/>
</g>
<g>
	<path class="st18" d="M196.9,281.1v-1.2l1.6-1.5c3.8-3.6,5.5-5.6,5.6-7.8c0-1.5-0.7-2.9-3-2.9c-1.4,0-2.5,0.7-3.2,1.3l-0.6-1.4
		c1-0.9,2.5-1.5,4.2-1.5c3.2,0,4.6,2.2,4.6,4.3c0,2.8-2,5-5.1,8l-1.2,1.1v0h6.7v1.7H196.9z"/>
	<path class="st18" d="M218.4,266.2v1.3l-6.5,13.6h-2.1l6.5-13.2v0H209v-1.7H218.4z"/>
</g>
<text transform="matrix(1 0 0 1 246.9958 160.4672)" class="st18 st39 st40">BOOK</text>
</svg>
