<svg xmlns="http://www.w3.org/2000/svg" xmlns:xlink="http://www.w3.org/1999/xlink" id="Layer_1" data-name="Layer 1" viewBox="0 0 795.73 257.58" width="795.73"  height="257.58" ><defs><linearGradient id="linear-gradient" x1="727.79" y1="184.62" x2="825.24" y2="278.07" gradientTransform="matrix(-1, 0, 0, 1, 979.59, 0)" gradientUnits="userSpaceOnUse"><stop offset="0" stop-color="#b23267"/><stop offset="0.25" stop-color="#952b56"/><stop offset="0.57" stop-color="#7d2849"/><stop offset="1" stop-color="#782746"/></linearGradient><linearGradient id="linear-gradient-2" x1="308.9" y1="286.78" x2="311.1" y2="284.52" gradientTransform="matrix(1, 0, 0, 1, 0, 0)" xlink:href="#linear-gradient"/><linearGradient id="linear-gradient-3" x1="2513.28" y1="2443.74" x2="2610.73" y2="2537.18" gradientTransform="matrix(0, -1, -1, 0, 2815.25, 2804.5)" xlink:href="#linear-gradient"/><linearGradient id="linear-gradient-4" x1="242.71" y1="4248.93" x2="340.16" y2="4342.38" gradientTransform="matrix(1, 0, 0, -1, 22.4, 4659.59)" xlink:href="#linear-gradient"/><linearGradient id="linear-gradient-5" x1="-1573.19" y1="1986.37" x2="-1475.74" y2="2079.82" gradientTransform="matrix(0, 1, 1, 0, -1841, 1877.25)" xlink:href="#linear-gradient"/></defs><path d="M418.29,231.37c-3,0-3.3,4.08-3.32,5.18V383.17h19.57c3,0,3.29-4.09,3.31-5.18V320.64a2.46,2.46,0,0,1,1.73-1.88l25.83,0c2.76,0,3.23-3.34,3.3-4.78V295.77H439.43a2.24,2.24,0,0,1-1.55-2.31l0-37a2.33,2.33,0,0,1,2.45-2.05h35.28c4.68,0,4.52-6.27,4.52-6.27V231.37Z" transform="translate(-23.08 -168.85)" style="fill:#4d4d4d"/><path d="M499.15,231.37c-3,0-3.3,4.08-3.32,5.18V383.17H515.4c3,0,3.29-4.09,3.31-5.18V320.64a2.46,2.46,0,0,1,1.73-1.88l25.83,0c2.76,0,3.23-3.34,3.3-4.78V295.77H520.29a2.24,2.24,0,0,1-1.55-2.31l0-37a2.33,2.33,0,0,1,2.45-2.05h35.28c4.68,0,4.52-6.27,4.52-6.27V231.37Z" transform="translate(-23.08 -168.85)" style="fill:#4d4d4d"/><path d="M197.08,287.52l-60.26-49.44c1.14-1.7,60.41-61,62.11-62.11,6.26-4.14,14.84-7.12,21.39-7.11h76.34c6.55,0,15.14,3,21.38,7.12L207.52,286.51C206.31,287.66,201.79,291.39,197.08,287.52Z" transform="translate(-23.08 -168.85)" style="fill:url(#linear-gradient)"/><path d="M309.47,286.51l-.31-.31S309.28,286.33,309.47,286.51Z" transform="translate(-23.08 -168.85)" style="fill:url(#linear-gradient-2)"/><path d="M268.61,236.5l49.45-60.26c1.7,1.13,61,60.4,62.1,62.1,4.15,6.26,7.12,14.84,7.11,21.4v76.34c0,6.55-3,15.14-7.12,21.38L269.62,246.93C268.47,245.73,264.74,241.21,268.61,236.5Z" transform="translate(-23.08 -168.85)" style="fill:url(#linear-gradient-3)"/><path d="M319.83,307.75l60.27,49.46c-1.14,1.69-60.41,61-62.12,62.09-6.24,4.15-14.83,7.13-21.38,7.12H220.27c-6.56,0-15.16-3-21.4-7.13L309.41,308.77C310.6,307.62,315.13,303.88,319.83,307.75Z" transform="translate(-23.08 -168.85)" style="fill:url(#linear-gradient-4)"/><path d="M248.27,358.78l-49.45,60.27c-1.69-1.14-61-60.41-62.1-62.12-4.15-6.25-7.12-14.83-7.11-21.38V259.21c0-6.55,3-15.14,7.12-21.39L247.26,348.35C248.41,349.55,252.13,354.07,248.27,358.78Z" transform="translate(-23.08 -168.85)" style="fill:url(#linear-gradient-5)"/><path d="M82.36,379.35h0l26.91-147.86H89.42a4.74,4.74,0,0,0-4.7,3.4L67.15,348.68a1.11,1.11,0,0,1-2,0l-17.63-114a4.72,4.72,0,0,0-4.63-3.17H23.08L50.19,383.17h27.7C81.6,383.17,82.36,379.35,82.36,379.35Z" transform="translate(-23.08 -168.85)" style="fill:#4d4d4d"/><path d="M598.18,231.49h-19.1V379.91c0,2.85,3.78,3.26,3.78,3.26H602V234.75C602,231.9,598.18,231.49,598.18,231.49Z" transform="translate(-23.08 -168.85)" style="fill:#4d4d4d"/><path d="M668.53,280.1l0,.22C668.57,280.24,668.53,280.18,668.53,280.1Z" transform="translate(-23.08 -168.85)" style="fill:#4d4d4d"/><path d="M672.31,283.36l20,.06V266.11a35.15,35.15,0,0,0-10.53-25.66,34.71,34.71,0,0,0-25.66-10.66,36.28,36.28,0,0,0-36.31,36.32v82.8a36.25,36.25,0,0,0,72.5,0V331.05c0-2.85-3.77-3.26-3.77-3.26l-19.95-.06v20.94a12.53,12.53,0,0,1-3.87,9.26,12.83,12.83,0,0,1-9.32,3.81,13,13,0,0,1-13.08-13.07v-83a12.78,12.78,0,0,1,3.82-9.32,12.51,12.51,0,0,1,9.26-3.88,13.23,13.23,0,0,1,13.19,13.2v14.69C668.77,283,672.31,283.36,672.31,283.36Z" transform="translate(-23.08 -168.85)" style="fill:#4d4d4d"/><path d="M772.89,254.35c1-.2,3.18-.91,3.29-3v-20H714.31c-2.85,0-3.25,3.78-3.25,3.78V379.39s.4,3.78,3.25,3.78h61.87V363.22c-.11-2.11-2.32-2.82-3.29-3l-39,0v-41.4h27.58c1-.2,3.19-.91,3.29-3v-20H733.93v-41.4Z" transform="translate(-23.08 -168.85)" style="fill:#4d4d4d"/><path d="M796.32,253V233.47h-4v-2.21h10.44v2.21h-4V253Z" transform="translate(-23.08 -168.85)" style="fill:#4d4d4d"/><path d="M813.06,253h-2.33l-3.6-17.3V253H805V231.26h3.38L812,248.63l3.44-17.37h3.39V253h-2.3V235.52Z" transform="translate(-23.08 -168.85)" style="fill:#4d4d4d"/></svg>